<svg width="24" height="26" viewBox="0 0 176 192" fill="none" xmlns="http://www.w3.org/2000/svg">
<path d="M109.741 57.3648L110.607 57.8645C110.607 57.8644 110.607 57.8644 110.607 57.8643C110.613 57.8546 110.619 57.8449 110.624 57.8352C121.643 38.7377 133.957 31.7063 144.781 31.7041C155.632 31.7019 165.18 38.7601 170.655 48.2499C176.131 57.7397 177.468 69.5445 172.042 78.9497C166.626 88.3365 154.376 95.5 132.318 95.5V96V96.5C154.376 96.5 166.626 103.663 172.042 113.05C177.468 122.456 176.131 134.26 170.655 143.75C165.18 153.24 155.632 160.298 144.781 160.296C133.952 160.294 121.63 153.255 110.607 134.136L110.174 134.385L109.741 134.635C120.764 153.754 120.684 167.957 115.263 177.346C109.831 186.754 98.9422 191.5 87.9878 191.5C77.0335 191.5 66.1477 186.754 60.722 177.347C55.3106 167.964 55.2361 153.776 66.2466 134.677C66.2546 134.663 66.2627 134.649 66.2708 134.635C66.2708 134.635 66.2709 134.635 66.2709 134.635L65.8378 134.385L65.4047 134.135C65.3967 134.149 65.3887 134.163 65.3807 134.177C54.364 153.265 42.0523 160.294 31.2308 160.296C20.3805 160.298 10.8324 153.24 5.35663 143.75C-0.119157 134.26 -1.45544 122.456 3.97038 113.05C9.3856 103.663 21.6365 96.5 43.6938 96.5V96V95.5C21.6366 95.5 9.38249 88.3366 3.96347 78.9496C-1.46611 69.5443 -0.134253 57.7395 5.33848 48.2498C10.8112 38.7601 20.3577 31.7019 31.2103 31.7041C42.0409 31.7063 54.3672 38.7435 65.4011 57.8583C65.4023 57.8603 65.4034 57.8623 65.4046 57.8643C65.4046 57.8644 65.4047 57.8644 65.4047 57.8645L65.8347 57.6163L65.8378 57.6146L66.2709 57.3648C55.2483 38.2456 55.3278 24.043 60.7492 14.6537C66.181 5.24612 77.0699 0.5 88.0243 0.5C98.9786 0.5 109.864 5.24611 115.29 14.6535C120.701 24.0358 120.776 38.2244 109.766 57.3226C109.757 57.3366 109.749 57.3506 109.741 57.3646C109.741 57.3647 109.741 57.3648 109.741 57.3648Z" stroke="#648371"/>
</svg>
