<svg width="24" height="24" viewBox="0 0 24 24" fill="none" xmlns="http://www.w3.org/2000/svg">
<path d="M12 0C8.81812 0 5.76375 1.26506 3.51562 3.51469C1.26562 5.76431 0 8.81869 0 12C0 15.1813 1.26562 18.2357 3.51562 20.4853C5.76375 22.7349 8.81812 24 12 24C15.1819 24 18.2362 22.7349 20.4844 20.4853C22.7344 18.2357 24 15.1813 24 12C24 8.81869 22.7344 5.76431 20.4844 3.51469C18.2362 1.26506 15.1819 0 12 0Z" fill="#FAFAFA"/>
<path d="M5.43184 11.8721C8.93059 10.3481 11.2631 9.34324 12.4293 8.85781C15.7631 7.47162 16.455 7.23087 16.9068 7.22273C17.0062 7.22112 17.2275 7.24568 17.3718 7.3625C17.4918 7.46093 17.5256 7.59406 17.5425 7.68743C17.5575 7.78081 17.5781 7.99362 17.5612 8.15975C17.3812 10.0572 16.5993 14.6619 16.2018 16.7872C16.035 17.6865 15.7031 17.988 15.3825 18.0174C14.685 18.0815 14.1562 17.5569 13.4812 17.1146C12.4256 16.4221 11.8293 15.9912 10.8037 15.3157C9.61872 14.5349 10.3875 14.1057 11.0625 13.4045C11.2387 13.2209 14.31 10.4281 14.3681 10.1748C14.3756 10.1431 14.3831 10.025 14.3118 9.96275C14.2425 9.90031 14.1393 9.92168 14.0643 9.93856C13.9575 9.96256 12.2718 11.0778 9.00184 13.2841C8.52372 13.613 8.09059 13.7733 7.70059 13.7649C7.27309 13.7557 6.44809 13.5226 5.83497 13.3235C5.08497 13.0792 4.48684 12.95 4.53934 12.5351C4.56559 12.3191 4.86372 12.098 5.43184 11.8721Z" fill="#19221D"/>
</svg>
