<svg width="24" height="24" viewBox="0 0 24 24" fill="none" xmlns="http://www.w3.org/2000/svg">
<path d="M0 12C0 6.288 0 4.032 2.016 2.016C4.032 0 6.24 0 12 0C17.76 0 19.968 0 21.984 2.016C24 4.032 24 6.288 24 12C24 17.712 24 19.968 21.984 21.984C19.968 24 17.76 24 12 24C6.24 24 4.032 24 2.016 21.984C0 19.968 0 17.712 0 12ZM21.84 12C21.84 6.528 21.84 4.896 20.448 3.552C19.056 2.16 17.472 2.16 12 2.16C6.528 2.16 4.896 2.16 3.552 3.552C2.16 4.944 2.16 6.528 2.16 12C2.16 17.472 2.16 19.104 3.552 20.448C4.944 21.84 6.528 21.84 12 21.84C17.472 21.84 19.104 21.84 20.448 20.448C21.84 19.056 21.84 17.472 21.84 12ZM12 5.856C13.6295 5.856 15.1922 6.50331 16.3445 7.65554C17.4967 8.80776 18.144 10.3705 18.144 12C18.144 13.6295 17.4967 15.1922 16.3445 16.3445C15.1922 17.4967 13.6295 18.144 12 18.144C10.3705 18.144 8.80776 17.4967 7.65554 16.3445C6.50331 15.1922 5.856 13.6295 5.856 12C5.856 10.3705 6.50331 8.80776 7.65554 7.65554C8.80776 6.50331 10.3705 5.856 12 5.856ZM12 15.984C14.208 15.984 15.984 14.208 15.984 12C15.984 9.792 14.208 8.016 12 8.016C9.792 8.016 8.016 9.792 8.016 12C8.016 14.208 9.792 15.984 12 15.984ZM19.824 5.616C19.824 6.384 19.2 7.056 18.384 7.056C17.616 7.056 16.944 6.384 16.944 5.616C16.944 4.8 17.616 4.176 18.384 4.176C19.2 4.176 19.824 4.8 19.824 5.616Z" fill="#FAFAFA"/>
</svg>
