<svg xmlns="http://www.w3.org/2000/svg" style="display: none;">
    <symbol id="arrow-circle-right" viewBox="0 0 37 22">
        <path d="M26 15L30 11M30 11L26 7M30 11H0.5M36 11C36 16.5228 31.5228 21 26 21C20.4772 21 16 16.5228 16 11C16 5.47715 20.4772 1 26 1C31.5228 1 36 5.47715 36 11Z" stroke-linecap="round" stroke-linejoin="round"/>
    </symbol>
    <symbol id="cart" viewBox="0 0 20 20">
        <path d="M13.9996 6C13.9996 7.06087 13.5782 8.07828 12.828 8.82843C12.0779 9.57857 11.0605 10 9.99959 10C8.93872 10 7.92131 9.57857 7.17116 8.82843C6.42102 8.07828 5.99959 7.06087 5.99959 6M1.63281 5.40138L0.932807 13.8014C0.78243 15.6059 0.707241 16.5082 1.01227 17.2042C1.28027 17.8157 1.74462 18.3204 2.33177 18.6382C3.00006 19 3.90545 19 5.71623 19H14.283C16.0937 19 16.9991 19 17.6674 18.6382C18.2546 18.3204 18.7189 17.8157 18.9869 17.2042C19.2919 16.5082 19.2167 15.6059 19.0664 13.8014L18.3664 5.40138C18.237 3.84875 18.1723 3.07243 17.8285 2.48486C17.5257 1.96744 17.0748 1.5526 16.5341 1.29385C15.92 1 15.141 1 13.583 1L6.41623 1C4.85821 1 4.07921 1 3.4651 1.29384C2.92433 1.5526 2.47349 1.96744 2.17071 2.48486C1.82689 3.07243 1.76219 3.84875 1.63281 5.40138Z" stroke-linecap="round" stroke-linejoin="round"/>
    </symbol>
    <symbol id="arrow-down" viewBox="0 0 8 6">
        <path d="M0.5 1.25L4 4.75L7.5 1.25" stroke-linecap="round" stroke-linejoin="round"/>
    </symbol>
    <symbol id="facebook" viewBox="0 0 40 40">
        <path d="M40 20C40 8.95312 31.0469 0 20 0C8.95312 0 0 8.95312 0 20C0 29.9836 7.30938 38.2578 16.8766 39.7586V25.7859H11.8023V20H16.8766V15.5945C16.8766 10.5859 19.857 7.81406 24.4273 7.81406C26.6188 7.81406 28.9094 8.20859 28.9094 8.20859V13.1289H26.3891C23.9016 13.1289 23.1344 14.6742 23.1344 16.2523V20H28.6797L27.7922 25.7859H23.1344V39.7586C32.6906 38.2578 40 29.9836 40 20Z"/>
    </symbol>
    <symbol id="instagram" viewBox="0 0 24 24">
        <path d="M0 12C0 6.288 0 4.032 2.016 2.016C4.032 0 6.24 0 12 0C17.76 0 19.968 0 21.984 2.016C24 4.032 24 6.288 24 12C24 17.712 24 19.968 21.984 21.984C19.968 24 17.76 24 12 24C6.24 24 4.032 24 2.016 21.984C0 19.968 0 17.712 0 12ZM21.84 12C21.84 6.528 21.84 4.896 20.448 3.552C19.056 2.16 17.472 2.16 12 2.16C6.528 2.16 4.896 2.16 3.552 3.552C2.16 4.944 2.16 6.528 2.16 12C2.16 17.472 2.16 19.104 3.552 20.448C4.944 21.84 6.528 21.84 12 21.84C17.472 21.84 19.104 21.84 20.448 20.448C21.84 19.056 21.84 17.472 21.84 12ZM12 5.856C13.6295 5.856 15.1922 6.50331 16.3445 7.65554C17.4967 8.80776 18.144 10.3705 18.144 12C18.144 13.6295 17.4967 15.1922 16.3445 16.3445C15.1922 17.4967 13.6295 18.144 12 18.144C10.3705 18.144 8.80776 17.4967 7.65554 16.3445C6.50331 15.1922 5.856 13.6295 5.856 12C5.856 10.3705 6.50331 8.80776 7.65554 7.65554C8.80776 6.50331 10.3705 5.856 12 5.856ZM12 15.984C14.208 15.984 15.984 14.208 15.984 12C15.984 9.792 14.208 8.016 12 8.016C9.792 8.016 8.016 9.792 8.016 12C8.016 14.208 9.792 15.984 12 15.984ZM19.824 5.616C19.824 6.384 19.2 7.056 18.384 7.056C17.616 7.056 16.944 6.384 16.944 5.616C16.944 4.8 17.616 4.176 18.384 4.176C19.2 4.176 19.824 4.8 19.824 5.616Z"/>
    </symbol>
    <symbol id="heart" viewBox="0 0 22 20">
        <path d="M10.9932 3.13581C8.9938 0.7984 5.65975 0.169643 3.15469 2.31001C0.649644 4.45038 0.296968 8.02898 2.2642 10.5604C3.89982 12.6651 8.84977 17.1041 10.4721 18.5408C10.6536 18.7016 10.7444 18.7819 10.8502 18.8135C10.9426 18.8411 11.0437 18.8411 11.1361 18.8135C11.2419 18.7819 11.3327 18.7016 11.5142 18.5408C13.1365 17.1041 18.0865 12.6651 19.7221 10.5604C21.6893 8.02898 21.3797 4.42787 18.8316 2.31001C16.2835 0.192157 12.9925 0.7984 10.9932 3.13581Z" stroke-linecap="round" stroke-linejoin="round"/>
    </symbol>
    <symbol id="lotus-icon" viewBox="0 0 176 192">
        <path d="M109.741 57.3648L110.607 57.8645C110.607 57.8644 110.607 57.8644 110.607 57.8643C110.613 57.8546 110.619 57.8449 110.624 57.8352C121.643 38.7377 133.957 31.7063 144.781 31.7041C155.632 31.7019 165.18 38.7601 170.655 48.2499C176.131 57.7397 177.468 69.5445 172.042 78.9497C166.626 88.3365 154.376 95.5 132.318 95.5V96V96.5C154.376 96.5 166.626 103.663 172.042 113.05C177.468 122.456 176.131 134.26 170.655 143.75C165.18 153.24 155.632 160.298 144.781 160.296C133.952 160.294 121.63 153.255 110.607 134.136L110.174 134.385L109.741 134.635C120.764 153.754 120.684 167.957 115.263 177.346C109.831 186.754 98.9422 191.5 87.9878 191.5C77.0335 191.5 66.1477 186.754 60.722 177.347C55.3106 167.964 55.2361 153.776 66.2466 134.677C66.2546 134.663 66.2627 134.649 66.2708 134.635C66.2708 134.635 66.2709 134.635 66.2709 134.635L65.8378 134.385L65.4047 134.135C65.3967 134.149 65.3887 134.163 65.3807 134.177C54.364 153.265 42.0523 160.294 31.2308 160.296C20.3805 160.298 10.8324 153.24 5.35663 143.75C-0.119157 134.26 -1.45544 122.456 3.97038 113.05C9.3856 103.663 21.6365 96.5 43.6938 96.5V96V95.5C21.6366 95.5 9.38249 88.3366 3.96347 78.9496C-1.46611 69.5443 -0.134253 57.7395 5.33848 48.2498C10.8112 38.7601 20.3577 31.7019 31.2103 31.7041C42.0409 31.7063 54.3672 38.7435 65.4011 57.8583C65.4023 57.8603 65.4034 57.8623 65.4046 57.8643C65.4046 57.8644 65.4047 57.8644 65.4047 57.8645L65.8347 57.6163L65.8378 57.6146L66.2709 57.3648C55.2483 38.2456 55.3278 24.043 60.7492 14.6537C66.181 5.24612 77.0699 0.5 88.0243 0.5C98.9786 0.5 109.864 5.24611 115.29 14.6535C120.701 24.0358 120.776 38.2244 109.766 57.3226C109.757 57.3366 109.749 57.3506 109.741 57.3646C109.741 57.3647 109.741 57.3648 109.741 57.3648Z" stroke="#648371"/>
    </symbol>
    <symbol id="search" viewBox="0 0 20 20">
        <path d="M19 19L14.65 14.65M17 9C17 13.4183 13.4183 17 9 17C4.58172 17 1 13.4183 1 9C1 4.58172 4.58172 1 9 1C13.4183 1 17 4.58172 17 9Z" stroke-linecap="round" stroke-linejoin="round"/>
    </symbol>
    <symbol id="telegram" viewBox="0 0 24 24">
        <path fill-rule="evenodd" clip-rule="evenodd" d="M3.51562 3.51469C5.76375 1.26506 8.81812 0 12 0C15.1819 0 18.2362 1.26506 20.4844 3.51469C22.7344 5.76431 24 8.81869 24 12C24 15.1813 22.7344 18.2357 20.4844 20.4853C18.2362 22.7349 15.1819 24 12 24C8.81812 24 5.76375 22.7349 3.51562 20.4853C1.26562 18.2357 0 15.1813 0 12C0 8.81869 1.26562 5.76431 3.51562 3.51469ZM12.4293 8.85781C11.2631 9.34324 8.93059 10.3481 5.43184 11.8721C4.86372 12.098 4.56559 12.3191 4.53934 12.5351C4.49318 12.8999 4.95015 13.0439 5.57109 13.2394C5.65626 13.2662 5.74451 13.294 5.83497 13.3235C6.44809 13.5226 7.27309 13.7557 7.70059 13.7649C8.09059 13.7733 8.52372 13.613 9.00184 13.2841C12.2718 11.0778 13.9575 9.96256 14.0643 9.93856C14.1393 9.92168 14.2425 9.90031 14.3118 9.96275C14.3831 10.025 14.3756 10.1431 14.3681 10.1748C14.3239 10.3675 12.5355 12.0302 11.605 12.8954C11.3124 13.1674 11.1046 13.3606 11.0625 13.4045C10.9683 13.5023 10.8723 13.5949 10.78 13.6839C10.211 14.2324 9.78407 14.6439 10.8037 15.3157C11.2981 15.6413 11.6927 15.9101 12.0871 16.1788C12.5109 16.4674 12.9345 16.7559 13.4812 17.1146C13.6218 17.2067 13.7561 17.3024 13.8868 17.3956C14.3838 17.7499 14.8302 18.0682 15.3825 18.0174C15.7031 17.988 16.035 17.6865 16.2018 16.7872C16.5993 14.6619 17.3812 10.0572 17.5612 8.15975C17.5781 7.99362 17.5575 7.78081 17.5425 7.68743C17.5256 7.59406 17.4918 7.46093 17.3718 7.3625C17.2275 7.24568 17.0062 7.22112 16.9068 7.22273C16.455 7.23087 15.7631 7.47162 12.4293 8.85781Z"/>
    </symbol>
    <symbol id="user" viewBox="0 0 20 19">
        <path d="M1 18C3.33579 15.5226 6.50702 14 10 14C13.493 14 16.6642 15.5226 19 18M14.5 5.5C14.5 7.98528 12.4853 10 10 10C7.51472 10 5.5 7.98528 5.5 5.5C5.5 3.01472 7.51472 1 10 1C12.4853 1 14.5 3.01472 14.5 5.5Z" stroke-linecap="round" stroke-linejoin="round"/>
    </symbol>
    <symbol id="lotus-logo" viewBox="0 0 145 156">
        <path d="M0.757812 134.114H13.976C18.0794 134.114 21.4092 130.785 21.4092 126.681C21.4092 124.562 20.4673 122.948 19.0209 121.905C20.1309 120.863 20.9046 119.483 20.9046 117.6C20.9046 113.53 17.5412 110.167 13.4714 110.167H0.757812V134.114ZM6.54278 128.363V124.697H13.8751C14.8506 124.697 15.6238 125.538 15.6238 126.547C15.6238 127.522 14.8506 128.363 13.8751 128.363H6.54278ZM6.54278 119.517V115.918H13.2696C14.2787 115.918 15.086 116.793 15.086 117.802C15.086 118.777 14.2787 119.517 13.2696 119.517H6.54278ZM26.9851 134.114H32.77V129.506H38.4204L41.6493 134.114H48.7461L44.239 127.69C46.7951 125.908 48.5443 123.116 48.5443 119.82C48.5443 114.338 43.7008 110.167 38.1513 110.167H26.9851V134.114ZM32.77 123.822V115.851H37.9159C40.6065 115.851 42.759 117.735 42.759 119.82C42.759 121.939 40.7747 123.822 38.084 123.822H32.77ZM53.952 134.114H59.737V110.167H53.952V134.114ZM80.2462 124.932H84.1478C82.9705 127.489 80.4817 129.136 77.5892 129.136C73.7549 129.136 70.5933 125.975 70.5933 122.107C70.5933 118.307 73.7549 115.145 77.5892 115.145C79.2374 115.145 80.7508 115.75 81.9954 116.658L85.6275 112.185C83.4078 110.402 80.6498 109.36 77.5892 109.36C70.526 109.36 64.7747 115.111 64.7747 122.107C64.7747 129.204 70.526 134.921 77.5892 134.921C84.6187 134.921 90.37 129.204 90.37 122.107C90.37 121.132 90.2355 120.19 90.0673 119.248H80.2462V124.932ZM95.4078 134.114H101.193V124.932H111.855V134.114H117.64V110.167H111.855V119.214H101.193V110.167H95.4078V134.114ZM131.018 134.114H136.804V115.885H144.943V110.167H122.812V115.885H131.018V134.114Z" fill="url(#paint0_linear_76_4)"/>
        <path d="M5.03906 150.574H11.0051V147.582H5.03906V150.574ZM22.6789 155.47H25.7977V150.538H30.984V147.51H25.7977V145.624H33.1599V142.559H22.6789V155.47ZM36.0754 155.47H46.5927V152.388H39.1943V142.559H36.0754V155.47ZM58.8104 148.997C58.8104 151.082 57.1425 152.787 55.057 152.787C52.99 152.787 51.2854 151.082 51.2854 148.997C51.2854 146.948 52.99 145.243 55.057 145.243C57.1425 145.243 58.8104 146.948 58.8104 148.997ZM48.1484 148.997C48.1484 152.823 51.2491 155.906 55.057 155.906C58.8467 155.906 61.9478 152.823 61.9478 148.997C61.9478 145.225 58.8467 142.124 55.057 142.124C51.2491 142.124 48.1484 145.225 48.1484 148.997ZM82.2711 142.559H78.9708L76.3055 150.284L74.4921 142.559H71.0285L69.2151 150.284L66.5679 142.559H63.2495L67.7464 155.47H71.0648L72.7693 147.673L74.4558 155.47H77.7742L82.2711 142.559ZM84.552 155.47H95.0874V152.388H87.6709V150.483H92.9656V147.455H87.6709V145.624H95.0874V142.559H84.552V155.47ZM98.13 155.47H101.249V152.986H104.295L106.036 155.47H109.862L107.432 152.007C108.81 151.046 109.753 149.541 109.753 147.764C109.753 144.808 107.142 142.559 104.15 142.559H98.13V155.47ZM101.249 149.921V145.624H104.023C105.474 145.624 106.634 146.639 106.634 147.764C106.634 148.906 105.564 149.921 104.114 149.921H101.249ZM111.907 153.512C114.319 155.217 116.495 155.906 118.344 155.906C121.5 155.906 123.657 154.02 123.657 151.844C123.657 147.038 115.316 147.401 115.316 146.095C115.316 145.66 116.023 145.225 117.147 145.225C118.217 145.225 119.65 145.624 121.445 146.766L123.186 144.119C120.938 142.668 118.943 142.124 117.311 142.124C114.21 142.124 112.161 144.01 112.161 146.222C112.161 150.737 120.502 150.012 120.502 151.898C120.502 152.351 119.704 152.787 118.453 152.787C117.274 152.787 115.769 152.315 113.811 150.919L111.907 153.512ZM134.697 150.574H140.663V147.582H134.697V150.574Z" fill="url(#paint1_linear_76_4)"/>
        <path d="M70.4012 1.0761C70.7966 0.848947 71.235 0.765824 71.656 0.810423C72.0771 0.765824 72.5155 0.848947 72.9105 1.0761C77.622 3.79093 80.5851 7.4125 81.5553 12.0674C83.6345 10.8779 85.7397 9.96329 87.8755 9.36234C90.966 8.49229 94.0996 8.27876 97.2827 8.83587C98.2733 9.00897 98.9782 9.85255 99.013 10.819C99.5682 18.3376 97.7654 24.4457 93.3169 28.9702C89.1329 33.2248 82.6632 35.9521 73.669 36.9926V66.3584L74.3501 64.8469C75.9575 61.2779 77.5649 57.7089 78.969 54.9506C83.2939 43.8759 88.7561 37.1782 94.9765 33.4016C101.268 29.5817 108.214 28.7978 115.488 29.5329C116.528 29.5892 117.386 30.4147 117.457 31.4801C118.131 41.4494 115.485 49.2602 109.763 55.0716C109.15 55.6929 108.504 56.2905 107.823 56.8634C106.584 64.4168 102.869 70.7071 96.8322 75.4572C91.1315 79.9431 83.3643 83.0197 73.669 84.4442V95.0987C73.669 96.2545 72.7321 97.1914 71.5763 97.1914C70.4205 97.1914 69.4836 96.2545 69.4836 95.0987V84.4204C59.8628 82.986 52.1491 79.9186 46.4798 75.4572C40.4428 70.7067 36.7283 64.4165 35.489 56.8627C34.8593 56.3321 34.258 55.7817 33.6869 55.2099C27.8694 49.3872 25.175 41.5314 25.855 31.4801C25.926 30.4147 26.784 29.5892 27.8241 29.5329C35.0978 28.7978 42.0442 29.5817 48.3356 33.4016C54.5559 37.1782 60.0177 43.8759 64.343 54.9506C65.7471 57.7089 67.3546 61.2779 68.962 64.8469L69.4836 66.0042V36.9741C60.5722 35.92 54.1542 33.1994 49.9952 28.9702C45.5467 24.4457 43.7435 18.3376 44.2991 10.819C44.3335 9.85255 45.0387 9.00897 46.0293 8.83587C49.1867 8.28368 52.2981 8.49005 55.3697 9.34573C57.5259 9.9463 59.6534 10.8681 61.7556 12.0719C62.7246 7.41477 65.6882 3.79169 70.4012 1.0761ZM73.669 76.2857V80.227C82.3272 78.8777 89.2248 76.1247 94.2489 72.1713C98.2756 69.0025 101.101 65.0401 102.664 60.3939C97.7344 63.139 91.6346 65.0613 84.4252 66.2042C83.6632 66.3248 83.594 66.3346 83.5063 66.3474C81.9484 66.5772 81.4892 66.6449 79.9929 68.0803C78.8859 69.1424 77.7426 70.5329 76.6359 72.0209C75.5773 73.4446 74.5765 74.9167 73.669 76.2857ZM69.4836 80.202V76.0457C68.6868 74.8483 67.8138 73.5697 66.8727 72.2896C65.8257 70.8658 64.7459 69.5218 63.6982 68.4553C62.7911 67.5315 62.2669 67.0538 61.7941 66.8214C61.3356 66.5961 60.6383 66.4774 59.4296 66.2938C51.9851 65.1626 45.7028 63.2119 40.6488 60.3958C42.2116 65.0408 45.0368 69.0029 49.0631 72.1713C54.0563 76.1001 60.8999 78.844 69.4836 80.202ZM71.656 5.18899C67.8451 7.63321 65.7339 10.8863 65.5861 15.074C65.4293 19.5229 67.3606 25.0942 71.656 31.9359C75.9514 25.0942 77.8828 19.5229 77.726 15.074C77.5782 10.8863 75.4669 7.63321 71.656 5.18899ZM67.0567 32.408C63.5403 26.4296 61.7238 21.2433 61.4445 16.7732C59.0596 15.1998 56.6645 14.038 54.2577 13.3679C52.3207 12.8282 50.3656 12.6093 48.39 12.753C48.2709 18.2881 49.7397 22.7574 52.9708 26.0437C56.0156 29.1402 60.6629 31.29 67.0567 32.408ZM36.6463 52.2672C41.69 57.3155 49.5673 60.564 60.051 62.1574C61.6123 62.3944 62.5587 62.5649 63.5622 63.0464C62.5304 60.7836 61.5246 58.6308 60.5945 56.8064L60.599 56.8041C60.5673 56.7418 60.5385 56.6771 60.5125 56.6102C56.5436 46.384 51.6634 40.2966 46.1775 36.9654C41.2626 33.9814 35.7618 33.1715 29.9425 33.5453C29.7577 41.4645 32.0492 47.666 36.6463 52.2672ZM81.8672 16.7789C81.5871 21.2475 79.7703 26.4322 76.255 32.408C82.6492 31.2904 87.2965 29.1402 90.3409 26.0437C93.572 22.7574 95.0407 18.2881 94.922 12.7533C92.931 12.6089 90.9588 12.8338 89.0037 13.3841C86.6173 14.0558 84.2388 15.2138 81.8672 16.7789ZM83.7709 62.0837C94.0788 60.4502 101.825 57.1843 106.787 52.1447C111.303 47.5583 113.553 41.3969 113.37 33.5453C107.55 33.1715 102.049 33.9814 97.1346 36.9654C91.6486 40.2966 86.7685 46.384 82.7992 56.6102C82.7735 56.6771 82.7448 56.7418 82.7131 56.8041L82.7176 56.8064C81.7961 58.6137 80.8006 60.7428 79.7794 62.9821C80.6608 62.5414 81.5191 62.4148 82.9016 62.2111C83.3552 62.1442 83.6636 62.1007 83.7709 62.0837ZM76.6715 15.4663C75.7549 17.3092 73.8534 18.5757 71.656 18.5757C69.4586 18.5757 67.5568 17.3092 66.6406 15.4663C67.5568 13.6234 69.4586 12.3569 71.656 12.3569C73.8534 12.3569 75.7549 13.6234 76.6715 15.4663Z" fill="url(#paint2_linear_76_4)"/>
        <defs>
            <linearGradient id="paint0_linear_76_4" x1="195" y1="109.475" x2="173.839" y2="197.902" gradientUnits="userSpaceOnUse">
                <stop offset="0.16993" stop-color="#AA7E35"/>
                <stop offset="0.293718" stop-color="#FEF7C7"/>
                <stop offset="0.565926" stop-color="#AA7E35"/>
                <stop offset="0.738401" stop-color="#FEF7C7"/>
                <stop offset="0.813607" stop-color="#AA7E35"/>
                <stop offset="1" stop-color="#FEF7C7"/>
            </linearGradient>
            <linearGradient id="paint1_linear_76_4" x1="187.747" y1="142.187" x2="180.961" y2="191.66" gradientUnits="userSpaceOnUse">
                <stop offset="0.16993" stop-color="#AA7E35"/>
                <stop offset="0.293718" stop-color="#FEF7C7"/>
                <stop offset="0.565926" stop-color="#AA7E35"/>
                <stop offset="0.738401" stop-color="#FEF7C7"/>
                <stop offset="0.813607" stop-color="#AA7E35"/>
                <stop offset="1" stop-color="#FEF7C7"/>
            </linearGradient>
            <linearGradient id="paint2_linear_76_4" x1="149.433" y1="1.23458" x2="-16.6431" y2="118.419" gradientUnits="userSpaceOnUse">
                <stop offset="0.16993" stop-color="#AA7E35"/>
                <stop offset="0.293718" stop-color="#FEF7C7"/>
                <stop offset="0.565926" stop-color="#AA7E35"/>
                <stop offset="0.738401" stop-color="#FEF7C7"/>
                <stop offset="0.813607" stop-color="#AA7E35"/>
                <stop offset="1" stop-color="#FEF7C7"/>
            </linearGradient>
        </defs>
    </symbol>
    <symbol id="logo-min" viewBox="0 0 55 59">
        <path d="M0 50.711H5.02796C6.58884 50.711 7.85542 49.4444 7.85542 47.8835C7.85542 47.0776 7.49715 46.4634 6.94695 46.0667C7.36919 45.6702 7.66348 45.1456 7.66348 44.4292C7.66348 42.8811 6.3841 41.6018 4.83602 41.6018H0V50.711ZM2.2005 48.5231V47.1287H4.98958C5.36064 47.1287 5.65478 47.4485 5.65478 47.8323C5.65478 48.2034 5.36064 48.5231 4.98958 48.5231H2.2005ZM2.2005 45.1584V43.7895H4.75925C5.14311 43.7895 5.4502 44.1221 5.4502 44.506C5.4502 44.8771 5.14311 45.1584 4.75925 45.1584H2.2005ZM9.97641 50.711H12.1769V48.9582H14.3262L15.5544 50.711H18.2539L16.5395 48.2674C17.5118 47.5892 18.1772 46.5274 18.1772 45.2736C18.1772 43.1882 16.3348 41.6018 14.2238 41.6018H9.97641V50.711ZM12.1769 46.7961V43.7639H14.1343C15.1578 43.7639 15.9765 44.4804 15.9765 45.2736C15.9765 46.0795 15.2217 46.7961 14.1983 46.7961H12.1769ZM20.2342 50.711H22.4347V41.6018H20.2342V50.711ZM30.236 47.2183H31.7201C31.2723 48.1906 30.3256 48.8174 29.2253 48.8174C27.7668 48.8174 26.5642 47.6148 26.5642 46.1435C26.5642 44.6979 27.7668 43.4953 29.2253 43.4953C29.8523 43.4953 30.4279 43.7255 30.9014 44.071L32.283 42.3693C31.4386 41.6913 30.3896 41.2947 29.2253 41.2947C26.5386 41.2947 24.3509 43.4825 24.3509 46.1435C24.3509 48.843 26.5386 51.0179 29.2253 51.0179C31.8992 51.0179 34.0869 48.843 34.0869 46.1435C34.0869 45.7726 34.0358 45.4143 33.9718 45.0561H30.236V47.2183ZM36.0032 50.711H38.2037V47.2183H42.2594V50.711H44.4599V41.6018H42.2594V45.0433H38.2037V41.6018H36.0032V50.711ZM49.5489 50.711H51.7495V43.7767H54.8456V41.6018H46.4273V43.7767H49.5489V50.711Z"/>
        <path d="M1.62891 56.972H3.89827V55.8339H1.62891V56.972ZM8.3388 58.8343H9.52515V56.9582H11.4979V55.8063H9.52515V55.0889H12.3256V53.9233H8.3388V58.8343ZM13.4346 58.8343H17.4352V57.6618H14.621V53.9233H13.4346V58.8343ZM22.0826 56.3719C22.0826 57.1652 21.4482 57.8136 20.6549 57.8136C19.8686 57.8136 19.2202 57.1652 19.2202 56.3719C19.2202 55.5926 19.8686 54.9442 20.6549 54.9442C21.4482 54.9442 22.0826 55.5926 22.0826 56.3719ZM18.0269 56.3719C18.0269 57.8274 19.2064 59 20.6549 59C22.0964 59 23.276 57.8274 23.276 56.3719C23.276 54.9373 22.0964 53.7578 20.6549 53.7578C19.2064 53.7578 18.0269 54.9373 18.0269 56.3719ZM31.0066 53.9233H29.7513L28.7374 56.8617L28.0476 53.9233H26.7302L26.0404 56.8617L25.0334 53.9233H23.7711L25.4817 58.8343H26.744L27.3923 55.8685L28.0338 58.8343H29.2961L31.0066 53.9233ZM31.8743 58.8343H35.8818V57.6618H33.0606V56.9375H35.0747V55.7857H33.0606V55.0889H35.8818V53.9233H31.8743V58.8343ZM37.0391 58.8343H38.2255V57.8894H39.3842L40.0464 58.8343H41.5017L40.5775 57.517C41.1016 57.1514 41.4603 56.579 41.4603 55.903C41.4603 54.7786 40.4671 53.9233 39.329 53.9233H37.0391V58.8343ZM38.2255 56.7237V55.0889H39.2807C39.8325 55.0889 40.274 55.4753 40.274 55.903C40.274 56.3374 39.867 56.7237 39.3152 56.7237H38.2255ZM42.2797 58.0895C43.197 58.7379 44.0247 59 44.7283 59C45.9285 59 46.7492 58.2826 46.7492 57.4549C46.7492 55.6271 43.5764 55.7649 43.5764 55.2684C43.5764 55.1028 43.8454 54.9373 44.273 54.9373C44.68 54.9373 45.2249 55.089 45.9078 55.5236L46.57 54.5165C45.7147 53.9647 44.9559 53.7578 44.3351 53.7578C43.1556 53.7578 42.3763 54.4751 42.3763 55.3167C42.3763 57.0341 45.5491 56.7582 45.5491 57.4756C45.5491 57.648 45.2456 57.8136 44.7697 57.8136C44.3213 57.8136 43.7488 57.6342 43.004 57.1031L42.2797 58.0895ZM50.9484 56.972H53.2177V55.8339H50.9484V56.972Z"/>
        <path d="M26.4897 0.105468C26.6401 0.0190644 26.8068 -0.0125541 26.967 0.00441034C27.1271 -0.0125541 27.2939 0.0190644 27.4441 0.105468C29.2363 1.13814 30.3635 2.51572 30.7325 4.28636C31.5234 3.83392 32.3242 3.486 33.1366 3.25741C34.3122 2.92646 35.5041 2.84524 36.7149 3.05715C37.0917 3.123 37.3599 3.44388 37.3731 3.81149C37.5843 6.67144 36.8985 8.99486 35.2064 10.7159C33.6149 12.3343 31.1539 13.3717 27.7327 13.7675V24.9377L27.9917 24.3628C28.6032 23.0052 29.2146 21.6476 29.7487 20.5984C31.3938 16.3858 33.4716 13.8381 35.8377 12.4016C38.2308 10.9485 40.8731 10.6503 43.6397 10.93C44.0354 10.9514 44.3619 11.2654 44.3889 11.6706C44.6454 15.4628 43.6386 18.4339 41.4621 20.6444C41.2292 20.8808 40.9832 21.1081 40.7242 21.326C40.2529 24.1992 38.8398 26.5919 36.5436 28.3988C34.3751 30.1051 31.4206 31.2754 27.7327 31.8172V35.87C27.7327 36.3097 27.3763 36.6661 26.9366 36.6661C26.497 36.6661 26.1406 36.3097 26.1406 35.87V31.8082C22.481 31.2626 19.5469 30.0958 17.3904 28.3988C15.094 26.5918 13.6811 24.1991 13.2096 21.3257C12.9701 21.1239 12.7414 20.9146 12.5242 20.697C10.3113 18.4822 9.28641 15.494 9.54504 11.6706C9.57207 11.2654 9.89842 10.9514 10.2941 10.93C13.0609 10.6503 15.7031 10.9485 18.0963 12.4016C20.4624 13.8381 22.54 16.3858 24.1852 20.5984C24.7193 21.6476 25.3308 23.0052 25.9422 24.3628L26.1406 24.803V13.7604C22.7509 13.3595 20.3096 12.3246 18.7276 10.7159C17.0354 8.99486 16.3495 6.67144 16.5609 3.81149C16.5739 3.44388 16.8422 3.123 17.219 3.05715C18.42 2.84711 19.6035 2.92561 20.7719 3.2511C21.5921 3.47954 22.4014 3.83019 23.201 4.28808C23.5696 2.51659 24.6969 1.13843 26.4897 0.105468ZM27.7327 28.7139V30.2131C31.0261 29.6999 33.6498 28.6527 35.5609 27.1489C37.0926 25.9435 38.1674 24.4363 38.7617 22.6689C36.8867 23.7131 34.5665 24.4443 31.8241 24.8791C31.5343 24.9249 31.508 24.9287 31.4746 24.9336C30.882 25.021 30.7074 25.0467 30.1382 25.5927C29.7171 25.9967 29.2822 26.5256 28.8613 27.0916C28.4586 27.6332 28.0779 28.1932 27.7327 28.7139ZM26.1406 30.2036V28.6226C25.8375 28.1672 25.5054 27.6808 25.1475 27.1939C24.7492 26.6523 24.3385 26.141 23.94 25.7353C23.5949 25.384 23.3955 25.2023 23.2157 25.1138C23.0413 25.0282 22.776 24.983 22.3163 24.9131C19.4845 24.4829 17.0948 23.7409 15.1724 22.6697C15.7668 24.4365 16.8415 25.9437 18.373 27.1489C20.2723 28.6433 22.8755 29.6871 26.1406 30.2036ZM26.967 1.66994C25.5174 2.59968 24.7143 3.83708 24.6581 5.43002C24.5984 7.1223 25.3331 9.24156 26.967 11.844C28.6009 9.24156 29.3355 7.1223 29.2759 5.43002C29.2197 3.83708 28.4166 2.59968 26.967 1.66994ZM25.2175 12.0236C23.8799 9.74949 23.1889 7.77672 23.0827 6.07639C22.1755 5.47789 21.2645 5.03596 20.349 4.78106C19.6122 4.57576 18.8684 4.49251 18.117 4.54714C18.0717 6.65261 18.6304 8.35265 19.8594 9.60271C21.0176 10.7806 22.7854 11.5983 25.2175 12.0236ZM13.6499 19.5777C15.5684 21.498 18.5648 22.7336 22.5526 23.3398C23.1465 23.4299 23.5065 23.4947 23.8882 23.6779C23.4957 22.8172 23.1132 21.9983 22.7594 21.3043L22.7611 21.3034C22.749 21.2797 22.7381 21.2551 22.7282 21.2297C21.2185 17.3398 19.3621 15.0243 17.2754 13.7571C15.4058 12.6221 13.3134 12.314 11.0999 12.4562C11.0296 15.4685 11.9012 17.8275 13.6499 19.5777ZM30.8511 6.07855C30.7446 7.77831 30.0535 9.75049 28.7163 12.0236C31.1486 11.5985 32.9163 10.7806 34.0744 9.60271C35.3034 8.35265 35.8621 6.6526 35.817 4.54728C35.0596 4.49237 34.3094 4.57791 33.5657 4.78724C32.658 5.04271 31.7533 5.48322 30.8511 6.07855ZM31.5753 23.3117C35.4962 22.6904 38.4427 21.4481 40.3302 19.5311C42.0481 17.7865 42.9038 15.4428 42.8341 12.4562C40.6205 12.314 38.5281 12.6221 36.6586 13.7571C34.5718 15.0243 32.7155 17.3398 31.2056 21.2297C31.1959 21.2551 31.185 21.2797 31.1729 21.3034L31.1746 21.3043C30.8241 21.9918 30.4454 22.8016 30.057 23.6535C30.3922 23.4858 30.7187 23.4377 31.2446 23.3602C31.4171 23.3347 31.5344 23.3182 31.5753 23.3117ZM28.8748 5.57925C28.5261 6.28025 27.8028 6.76202 26.967 6.76202C26.1311 6.76202 25.4077 6.28025 25.0592 5.57925C25.4077 4.87824 26.1311 4.39648 26.967 4.39648C27.8028 4.39648 28.5261 4.87824 28.8748 5.57925Z"/>
    </symbol>

    <symbol id="circle-arrow" viewBox="0 0 32 32">
        <circle cx="16" cy="16" r="15.5"/>
        <path d="M10 13L16 19L22 13" stroke-linecap="round" stroke-linejoin="round"/>
    </symbol>

    <symbol id="minus" viewBox="0 0 44 44">
        <path d="M9.16675 22H34.8334" stroke-linecap="round" stroke-linejoin="round"/>
    </symbol>
    <symbol id="plus" viewBox="0 0 44 44">
        <path d="M21.9998 9.16602V34.8327M9.1665 21.9993H34.8332" stroke-linecap="round" stroke-linejoin="round"/>
    </symbol>
    <symbol id="close" viewBox="0 0 34 34" >
        <path d="M33 1L1 33M1 1L33 33" stroke-linecap="round" stroke-linejoin="round"/>
    </symbol>
    <symbol id="alert-success" viewBox="0 0 24 25">
        <path d="M9 12.5L11 14.5L15.5 10M7.33377 4.3187C8.1376 4.25455 8.90071 3.93846 9.51447 3.41542C10.9467 2.19486 13.0533 2.19486 14.4855 3.41542C15.0993 3.93846 15.8624 4.25455 16.6662 4.3187C18.5421 4.46839 20.0316 5.95794 20.1813 7.83377C20.2455 8.6376 20.5615 9.40071 21.0846 10.0145C22.3051 11.4467 22.3051 13.5533 21.0846 14.9855C20.5615 15.5993 20.2455 16.3624 20.1813 17.1662C20.0316 19.0421 18.5421 20.5316 16.6662 20.6813C15.8624 20.7455 15.0993 21.0615 14.4855 21.5846C13.0533 22.8051 10.9467 22.8051 9.51447 21.5846C8.90071 21.0615 8.1376 20.7455 7.33377 20.6813C5.45794 20.5316 3.96839 19.0421 3.8187 17.1662C3.75455 16.3624 3.43846 15.5993 2.91542 14.9855C1.69486 13.5533 1.69486 11.4467 2.91542 10.0145C3.43846 9.40071 3.75455 8.6376 3.8187 7.83377C3.96839 5.95794 5.45794 4.46839 7.33377 4.3187Z"/>
    </symbol>
    <symbol id="arrow-back" viewBox="0 0 24 24">
        <path d="M15 18L9 12L15 6"/>
    </symbol>

    <symbol id="bin" viewBox="0 0 44 44">
        <path d="M14.3001 36.1169C13.5362 36.1169 12.8869 35.8496 12.3522 35.3148C11.8175 34.7801 11.5501 34.1308 11.5501 33.3669V11.0003H9.7168V9.71693H16.5001V8.43359H27.5001V9.71693H34.2835V11.0003H32.4501V33.3669C32.4501 34.1614 32.1904 34.8183 31.671 35.3378C31.1515 35.8572 30.4946 36.1169 29.7001 36.1169H14.3001ZM31.1668 11.0003H12.8335V33.3669C12.8335 33.7947 12.971 34.1461 13.246 34.4211C13.521 34.6961 13.8724 34.8336 14.3001 34.8336H29.7001C30.0668 34.8336 30.4029 34.6808 30.7085 34.3753C31.014 34.0697 31.1668 33.7336 31.1668 33.3669V11.0003ZM18.4251 31.1669H19.7085V14.6669H18.4251V31.1669ZM24.2918 31.1669H25.5751V14.6669H24.2918V31.1669Z"/>
    </symbol>

    <symbol id="carousel-next" viewBox="0 0 32 32">
        <path d="M13 22L19 16L13 10"/>
    </symbol>
    <symbol id="carousel-prev" viewBox="0 0 32 32">
        <path d="M19 10L13 16L19 22"/>
    </symbol>
    <symbol id="logout" viewBox="0 0 22 20">
        <path d="M17 6L21 10M21 10L17 14M21 10H8M14 2.20404C12.7252 1.43827 11.2452 1 9.66667 1C4.8802 1 1 5.02944 1 10C1 14.9706 4.8802 19 9.66667 19C11.2452 19 12.7252 18.5617 14 17.796" stroke-linecap="round" stroke-linejoin="round"/>
    </symbol>

    <symbol id="filter" viewBox="0 0 16 16">
        <path d="M2 3.88C2 3.57197 2 3.41796 2.05995 3.30031C2.11268 3.19682 2.19682 3.11268 2.30031 3.05995C2.41796 3 2.57197 3 2.88 3H12.12C12.428 3 12.582 3 12.6997 3.05995C12.8032 3.11268 12.8873 3.19682 12.9401 3.30031C13 3.41796 13 3.57197 13 3.88V4.24817C13 4.39601 13 4.46992 12.9819 4.53866C12.9659 4.59957 12.9396 4.65728 12.904 4.70927C12.8639 4.76794 12.8081 4.81635 12.6963 4.91317L9.17866 7.96183C9.06694 8.05865 9.01108 8.10706 8.97097 8.16573C8.93543 8.21772 8.90907 8.27543 8.89307 8.33634C8.875 8.40508 8.875 8.479 8.875 8.62683V11.5021C8.875 11.6097 8.875 11.6634 8.85765 11.7099C8.84232 11.751 8.81739 11.7879 8.78494 11.8173C8.74821 11.8507 8.69828 11.8707 8.59841 11.9106L6.72841 12.6586C6.52626 12.7395 6.42519 12.7799 6.34405 12.7631C6.2731 12.7483 6.21083 12.7062 6.17079 12.6458C6.125 12.5767 6.125 12.4678 6.125 12.2501V8.62683C6.125 8.479 6.125 8.40508 6.10693 8.33634C6.09093 8.27543 6.06457 8.21772 6.02903 8.16573C5.98892 8.10706 5.93306 8.05865 5.82134 7.96183L2.30366 4.91317C2.19194 4.81635 2.13608 4.76794 2.09597 4.70927C2.06043 4.65728 2.03407 4.59957 2.01807 4.53866C2 4.46992 2 4.396 2 4.24817V3.88Z" stroke-width="0.7" stroke-linecap="round" stroke-linejoin="round"/>
    </symbol>




</svg>
