<svg xmlns="http://www.w3.org/2000/svg" style="display: none;">
    <symbol id="arrow-circle-right" viewBox="0 0 37 22">
        <path d="M26 15L30 11M30 11L26 7M30 11H0.5M36 11C36 16.5228 31.5228 21 26 21C20.4772 21 16 16.5228 16 11C16 5.47715 20.4772 1 26 1C31.5228 1 36 5.47715 36 11Z" stroke-linecap="round" stroke-linejoin="round"/>
    </symbol>
    <symbol id="cart" viewBox="0 0 20 20">
        <path d="M13.9996 6C13.9996 7.06087 13.5782 8.07828 12.828 8.82843C12.0779 9.57857 11.0605 10 9.99959 10C8.93872 10 7.92131 9.57857 7.17116 8.82843C6.42102 8.07828 5.99959 7.06087 5.99959 6M1.63281 5.40138L0.932807 13.8014C0.78243 15.6059 0.707241 16.5082 1.01227 17.2042C1.28027 17.8157 1.74462 18.3204 2.33177 18.6382C3.00006 19 3.90545 19 5.71623 19H14.283C16.0937 19 16.9991 19 17.6674 18.6382C18.2546 18.3204 18.7189 17.8157 18.9869 17.2042C19.2919 16.5082 19.2167 15.6059 19.0664 13.8014L18.3664 5.40138C18.237 3.84875 18.1723 3.07243 17.8285 2.48486C17.5257 1.96744 17.0748 1.5526 16.5341 1.29385C15.92 1 15.141 1 13.583 1L6.41623 1C4.85821 1 4.07921 1 3.4651 1.29384C2.92433 1.5526 2.47349 1.96744 2.17071 2.48486C1.82689 3.07243 1.76219 3.84875 1.63281 5.40138Z" stroke-linecap="round" stroke-linejoin="round"/>
    </symbol>
    <symbol id="arrow-down" viewBox="0 0 8 6">
        <path d="M0.5 1.25L4 4.75L7.5 1.25" stroke-linecap="round" stroke-linejoin="round"/>
    </symbol>
    <symbol id="facebook" viewBox="0 0 40 40">
        <path d="M40 20C40 8.95312 31.0469 0 20 0C8.95312 0 0 8.95312 0 20C0 29.9836 7.30938 38.2578 16.8766 39.7586V25.7859H11.8023V20H16.8766V15.5945C16.8766 10.5859 19.857 7.81406 24.4273 7.81406C26.6188 7.81406 28.9094 8.20859 28.9094 8.20859V13.1289H26.3891C23.9016 13.1289 23.1344 14.6742 23.1344 16.2523V20H28.6797L27.7922 25.7859H23.1344V39.7586C32.6906 38.2578 40 29.9836 40 20Z"/>
    </symbol>
    <symbol id="instagram" viewBox="0 0 24 24">
        <path d="M0 12C0 6.288 0 4.032 2.016 2.016C4.032 0 6.24 0 12 0C17.76 0 19.968 0 21.984 2.016C24 4.032 24 6.288 24 12C24 17.712 24 19.968 21.984 21.984C19.968 24 17.76 24 12 24C6.24 24 4.032 24 2.016 21.984C0 19.968 0 17.712 0 12ZM21.84 12C21.84 6.528 21.84 4.896 20.448 3.552C19.056 2.16 17.472 2.16 12 2.16C6.528 2.16 4.896 2.16 3.552 3.552C2.16 4.944 2.16 6.528 2.16 12C2.16 17.472 2.16 19.104 3.552 20.448C4.944 21.84 6.528 21.84 12 21.84C17.472 21.84 19.104 21.84 20.448 20.448C21.84 19.056 21.84 17.472 21.84 12ZM12 5.856C13.6295 5.856 15.1922 6.50331 16.3445 7.65554C17.4967 8.80776 18.144 10.3705 18.144 12C18.144 13.6295 17.4967 15.1922 16.3445 16.3445C15.1922 17.4967 13.6295 18.144 12 18.144C10.3705 18.144 8.80776 17.4967 7.65554 16.3445C6.50331 15.1922 5.856 13.6295 5.856 12C5.856 10.3705 6.50331 8.80776 7.65554 7.65554C8.80776 6.50331 10.3705 5.856 12 5.856ZM12 15.984C14.208 15.984 15.984 14.208 15.984 12C15.984 9.792 14.208 8.016 12 8.016C9.792 8.016 8.016 9.792 8.016 12C8.016 14.208 9.792 15.984 12 15.984ZM19.824 5.616C19.824 6.384 19.2 7.056 18.384 7.056C17.616 7.056 16.944 6.384 16.944 5.616C16.944 4.8 17.616 4.176 18.384 4.176C19.2 4.176 19.824 4.8 19.824 5.616Z"/>
    </symbol>
    <symbol id="heart" viewBox="0 0 22 20">
        <path d="M10.9932 3.13581C8.9938 0.7984 5.65975 0.169643 3.15469 2.31001C0.649644 4.45038 0.296968 8.02898 2.2642 10.5604C3.89982 12.6651 8.84977 17.1041 10.4721 18.5408C10.6536 18.7016 10.7444 18.7819 10.8502 18.8135C10.9426 18.8411 11.0437 18.8411 11.1361 18.8135C11.2419 18.7819 11.3327 18.7016 11.5142 18.5408C13.1365 17.1041 18.0865 12.6651 19.7221 10.5604C21.6893 8.02898 21.3797 4.42787 18.8316 2.31001C16.2835 0.192157 12.9925 0.7984 10.9932 3.13581Z" stroke-linecap="round" stroke-linejoin="round"/>
    </symbol>
    <symbol id="lotus-icon" viewBox="0 0 176 192">
        <path d="M109.741 57.3648L110.607 57.8645C110.607 57.8644 110.607 57.8644 110.607 57.8643C110.613 57.8546 110.619 57.8449 110.624 57.8352C121.643 38.7377 133.957 31.7063 144.781 31.7041C155.632 31.7019 165.18 38.7601 170.655 48.2499C176.131 57.7397 177.468 69.5445 172.042 78.9497C166.626 88.3365 154.376 95.5 132.318 95.5V96V96.5C154.376 96.5 166.626 103.663 172.042 113.05C177.468 122.456 176.131 134.26 170.655 143.75C165.18 153.24 155.632 160.298 144.781 160.296C133.952 160.294 121.63 153.255 110.607 134.136L110.174 134.385L109.741 134.635C120.764 153.754 120.684 167.957 115.263 177.346C109.831 186.754 98.9422 191.5 87.9878 191.5C77.0335 191.5 66.1477 186.754 60.722 177.347C55.3106 167.964 55.2361 153.776 66.2466 134.677C66.2546 134.663 66.2627 134.649 66.2708 134.635C66.2708 134.635 66.2709 134.635 66.2709 134.635L65.8378 134.385L65.4047 134.135C65.3967 134.149 65.3887 134.163 65.3807 134.177C54.364 153.265 42.0523 160.294 31.2308 160.296C20.3805 160.298 10.8324 153.24 5.35663 143.75C-0.119157 134.26 -1.45544 122.456 3.97038 113.05C9.3856 103.663 21.6365 96.5 43.6938 96.5V96V95.5C21.6366 95.5 9.38249 88.3366 3.96347 78.9496C-1.46611 69.5443 -0.134253 57.7395 5.33848 48.2498C10.8112 38.7601 20.3577 31.7019 31.2103 31.7041C42.0409 31.7063 54.3672 38.7435 65.4011 57.8583C65.4023 57.8603 65.4034 57.8623 65.4046 57.8643C65.4046 57.8644 65.4047 57.8644 65.4047 57.8645L65.8347 57.6163L65.8378 57.6146L66.2709 57.3648C55.2483 38.2456 55.3278 24.043 60.7492 14.6537C66.181 5.24612 77.0699 0.5 88.0243 0.5C98.9786 0.5 109.864 5.24611 115.29 14.6535C120.701 24.0358 120.776 38.2244 109.766 57.3226C109.757 57.3366 109.749 57.3506 109.741 57.3646C109.741 57.3647 109.741 57.3648 109.741 57.3648Z" stroke="#648371"/>
    </symbol>
    <symbol id="search" viewBox="0 0 20 20">
        <path d="M19 19L14.65 14.65M17 9C17 13.4183 13.4183 17 9 17C4.58172 17 1 13.4183 1 9C1 4.58172 4.58172 1 9 1C13.4183 1 17 4.58172 17 9Z" stroke-linecap="round" stroke-linejoin="round"/>
    </symbol>
    <symbol id="telegram" viewBox="0 0 24 24">
        <path fill-rule="evenodd" clip-rule="evenodd" d="M3.51562 3.51469C5.76375 1.26506 8.81812 0 12 0C15.1819 0 18.2362 1.26506 20.4844 3.51469C22.7344 5.76431 24 8.81869 24 12C24 15.1813 22.7344 18.2357 20.4844 20.4853C18.2362 22.7349 15.1819 24 12 24C8.81812 24 5.76375 22.7349 3.51562 20.4853C1.26562 18.2357 0 15.1813 0 12C0 8.81869 1.26562 5.76431 3.51562 3.51469ZM12.4293 8.85781C11.2631 9.34324 8.93059 10.3481 5.43184 11.8721C4.86372 12.098 4.56559 12.3191 4.53934 12.5351C4.49318 12.8999 4.95015 13.0439 5.57109 13.2394C5.65626 13.2662 5.74451 13.294 5.83497 13.3235C6.44809 13.5226 7.27309 13.7557 7.70059 13.7649C8.09059 13.7733 8.52372 13.613 9.00184 13.2841C12.2718 11.0778 13.9575 9.96256 14.0643 9.93856C14.1393 9.92168 14.2425 9.90031 14.3118 9.96275C14.3831 10.025 14.3756 10.1431 14.3681 10.1748C14.3239 10.3675 12.5355 12.0302 11.605 12.8954C11.3124 13.1674 11.1046 13.3606 11.0625 13.4045C10.9683 13.5023 10.8723 13.5949 10.78 13.6839C10.211 14.2324 9.78407 14.6439 10.8037 15.3157C11.2981 15.6413 11.6927 15.9101 12.0871 16.1788C12.5109 16.4674 12.9345 16.7559 13.4812 17.1146C13.6218 17.2067 13.7561 17.3024 13.8868 17.3956C14.3838 17.7499 14.8302 18.0682 15.3825 18.0174C15.7031 17.988 16.035 17.6865 16.2018 16.7872C16.5993 14.6619 17.3812 10.0572 17.5612 8.15975C17.5781 7.99362 17.5575 7.78081 17.5425 7.68743C17.5256 7.59406 17.4918 7.46093 17.3718 7.3625C17.2275 7.24568 17.0062 7.22112 16.9068 7.22273C16.455 7.23087 15.7631 7.47162 12.4293 8.85781Z"/>
    </symbol>
    <symbol id="user" viewBox="0 0 20 19">
        <path d="M1 18C3.33579 15.5226 6.50702 14 10 14C13.493 14 16.6642 15.5226 19 18M14.5 5.5C14.5 7.98528 12.4853 10 10 10C7.51472 10 5.5 7.98528 5.5 5.5C5.5 3.01472 7.51472 1 10 1C12.4853 1 14.5 3.01472 14.5 5.5Z" stroke-linecap="round" stroke-linejoin="round"/>
    </symbol>
    <symbol id="lotus-logo" viewBox="0 0 1122 1022">
            <g clip-path="url(#clip0_59_77)">
                <path d="M563.354 473.2C563.354 484.674 563.55 496.152 563.276 507.617C563.131 513.68 565.191 516.285 571.563 516.061C582.07 515.69 592.634 515.491 603.101 516.247C606.329 516.48 609.318 520.052 612.414 522.093C609.387 524.651 606.527 529.12 603.299 529.407C593.519 530.279 583.591 529.643 573.73 529.369C567.54 529.196 564.633 530.991 564.712 538.097C565.102 574.215 564.057 610.367 565.269 646.45C566.57 685.138 573.6 722.834 591.141 757.988C594.168 764.051 597.239 765.131 603.756 763.323C633.108 755.181 662.284 745.512 692.212 740.567C727.174 734.79 762.722 733.133 798.332 738.875C821.832 742.664 844.734 747.918 865.828 758.816C883.671 768.035 898.1 781.251 905.243 800.912C910.963 816.654 904.204 829.971 894.953 841.083C878.247 861.147 855.213 870.451 829.915 875.727C798.899 882.197 768.057 879.86 737.389 875.251C699.435 869.547 663.232 857.32 631.706 835.187C614.241 822.925 599.214 807.044 583.837 792.03C577.988 786.316 572.889 784.316 565.528 787.737C557.219 791.598 548.91 795.52 540.361 798.789C533.86 801.274 534.881 805.495 537.895 809.085C553.622 827.823 565.096 848.608 567.471 873.214C568.485 883.712 568.362 894.849 565.909 905.01C563.194 916.251 553.861 922.333 542.04 923.379C528.925 924.538 519.885 918.459 513.324 907.419C510.36 902.437 511.838 899.12 515.671 896.036C526.818 887.072 529.331 874.933 526.66 861.966C524.068 849.383 520.619 836.816 515.942 824.869C511.412 813.303 505.378 811.819 494.18 816.708C478.038 823.757 462.204 831.707 445.624 837.527C397.355 854.47 348.935 871.258 296.492 868.165C265.584 866.341 235.611 860.634 209.73 842.592C184.239 824.825 181.247 799.564 205.04 777.138C226.099 757.288 251.901 747.102 280.409 743.43C304.782 740.289 329.208 734.377 353.517 734.825C378.069 735.275 402.684 741.193 426.956 746.233C461.43 753.389 491.692 769.972 519.784 790.849C521.942 792.452 526.131 793.038 528.663 792.121C540.15 787.973 551.203 782.584 562.775 778.728C569.207 776.587 568.775 773.547 566.677 768.842C557.65 748.573 547.24 728.771 540.128 707.851C534.201 690.414 529.958 671.786 528.865 653.452C526.61 615.643 526.774 577.682 526.374 539.782C526.282 531.246 523.01 528.692 514.846 529.104C509.119 529.394 499.907 532.484 499.554 522.984C499.195 513.286 508.559 515.721 514.247 516.093C523.391 516.694 525.501 513.447 525.142 504.555C524.566 490.303 525.435 475.95 526.575 461.71C526.805 458.847 530.484 454.866 533.413 453.873C541.87 451.007 545.959 445.174 549.247 437.382C550.743 433.838 555.417 431.64 558.652 428.83C560.296 432.471 563.146 436.046 563.358 439.766C563.987 450.881 563.584 462.053 563.584 473.203C563.509 473.203 563.433 473.203 563.358 473.203L563.354 473.2ZM790.023 868.432C799.173 866.489 818.346 865.144 835.269 858.268C872.87 842.992 879.652 799.318 845.402 772.895C823.965 756.356 798.921 750.378 772.486 748.491C716.572 744.497 663.156 756.23 610.55 773.582C604.172 775.686 604.184 778.486 607.375 783.229C626.771 812.081 652.176 833.776 683.799 848.35C714.519 862.505 747.282 865.957 790.02 868.432H790.023ZM353.732 749.798C342.6 749.798 331.324 748.664 320.36 750.022C293.733 753.323 268.025 760.114 246.128 776.691C235.759 784.54 228.433 794.767 227.548 808.235C226.285 827.467 238.767 838.066 253.76 845.339C286.227 861.09 320.83 857.972 354.743 852.618C376.507 849.181 397.972 842.567 418.886 835.392C443.738 826.866 467.871 816.232 492.291 806.452C498.061 804.14 498.981 800.543 493.799 796.735C481.096 787.406 469.042 776.719 455.199 769.503C423.598 753.021 389.169 747.798 353.728 749.795L353.732 749.798Z" />
                <path d="M768.747 250.805C776.004 259.067 783.683 267.061 790.483 275.742C798.644 286.161 798.121 287.783 789.022 297.333C770.688 316.574 750.397 333.243 725.769 343.744C700.061 354.705 673.626 355.921 646.702 348.087C614.427 338.698 590.76 316.738 567.739 294.022C562.384 288.74 559.805 287.55 553.458 293.134C536.157 308.35 518.764 323.778 499.724 336.625C476.359 352.393 449.959 356.075 421.806 350.727C382.189 343.199 354.286 318.241 327.866 290.643C326.603 289.323 326.395 285.162 327.507 283.71C333.974 275.275 340.556 266.837 347.955 259.234C353.319 253.722 354.932 250.056 348.922 243.488C334.597 227.841 325.208 209.235 319.727 188.699C316.896 178.091 314.13 167.464 311.059 156.925C308.933 149.636 310.253 144.238 317.444 140.465C333.385 132.102 350.195 125.752 367.987 124.158C384.851 122.65 401.957 123.658 418.95 123.9C425.766 123.998 429.93 122.807 431.473 114.709C433.278 105.248 437.542 96.2772 440.428 86.9982C442.821 79.294 448.387 78.7176 454.752 80.2987C462.35 82.1886 469.887 84.3681 477.345 86.7556C483.191 88.6266 486.82 87.332 489.245 81.3035C499.822 55.016 515.542 32.1995 536.673 13.2665C541.836 8.64277 547.345 4.17332 553.37 0.856676C555.972 -0.573293 561.093 -0.122884 563.698 1.57481C584.221 14.9674 601.431 31.8687 613.819 53.1199C619.882 63.5202 624.235 74.919 630.339 85.291C631.552 87.3541 637.458 87.9462 640.774 87.2344C649.871 85.2879 658.892 82.7146 667.645 79.5617C673.686 77.3852 677.642 78.9538 679.821 84.3681C683.929 94.5669 688.253 104.781 691.053 115.371C692.893 122.328 695.516 124.896 702.726 123.866C724.614 120.738 746.665 119.859 768.105 125.992C781.39 129.79 794.348 135.164 806.789 141.195C809.697 142.606 811.564 149.734 811.108 153.926C808.116 181.458 799.246 207.128 784.058 230.386C779.406 237.51 773.853 244.046 768.747 250.808V250.805ZM425.142 133.1C414.625 132.174 405.154 130.886 395.651 130.596C372.491 129.885 350.002 133.198 328.921 143.457C323.057 146.31 318.36 149.429 319.69 157.712C324.619 188.469 335.885 216.228 356.308 240.052C360.368 244.786 363.326 242.295 367.701 240.254C381.062 234.017 394.574 227.816 408.584 223.343C419.712 219.787 431.659 218.792 443.505 216.609C430.333 190.498 423.885 163.303 425.139 133.1H425.142ZM677.327 216.952C679.453 217.897 680.335 218.656 681.173 218.609C706.868 217.154 730.318 224.726 751.326 238.547C760.555 244.616 764.829 241.173 769.462 234.546C785.891 211.059 797.353 185.657 800.279 156.689C800.922 150.32 799.126 147.35 793.847 144.833C762.287 129.793 729.329 127.607 694.09 133.412C697.365 163.139 690.338 190.756 677.324 216.955L677.327 216.952ZM624.361 91.8204C622.531 88.1226 621.309 85.965 620.364 83.691C608.496 55.1262 591.239 30.7663 565.827 12.5106C560.243 8.49788 555.112 8.39709 550.123 12.3153C525.429 31.7176 507.173 55.9357 496.896 85.7414C496.19 87.7919 498.42 92.1574 500.546 93.6441C508.033 98.8757 516.783 102.457 523.741 108.249C536.733 119.062 548.8 130.984 562.268 143.378C576.111 120.035 599.57 104.989 624.361 91.8204ZM536.617 299.73C536.365 298.911 536.11 298.092 535.858 297.273C532.358 297.777 528.749 297.9 525.385 298.873C519.665 300.527 514.241 303.484 508.446 304.552C459.253 313.611 415.312 300.823 374.989 272.422C369.068 268.251 365.102 257.338 356.519 261.467C349.618 264.787 345.004 272.904 339.451 278.964C334.153 284.743 335.885 290.025 341.186 294.492C353.801 305.125 365.789 316.76 379.474 325.809C402.442 340.994 428.522 346.298 455.855 343.271C488.659 339.64 512.131 318.637 536.613 299.727L536.617 299.73ZM586.971 297.333C586.549 298.079 586.13 298.826 585.708 299.575C587.601 301.925 589.135 304.738 591.456 306.536C596.921 310.763 602.909 314.307 608.421 318.477C621.7 328.531 635.918 336.588 652.428 339.936C705.444 350.689 746.324 328.805 781.686 291.934C788.553 284.775 782.26 280.076 778.445 275.716C773.129 269.637 769.346 260.406 758.498 262.563C757.377 262.787 756.422 263.984 755.452 264.803C732.324 284.302 706.285 297.805 676.571 304.382C654.416 309.283 632.418 308.842 610.433 304.287C602.474 302.637 594.782 299.689 586.968 297.333H586.971ZM539.099 283.37C537.036 283.106 534.969 282.866 532.913 282.564C530.711 282.243 528.364 282.252 526.345 281.452C499.299 270.743 473.909 257.609 455.6 233.8C453.798 231.457 449.993 229.771 446.932 229.422C422.676 226.65 400.366 233.394 379.049 244.251C367.291 250.241 366.646 253.864 377.238 261.486C401.525 278.961 426.95 293.578 457.902 296.593C486.183 299.345 513.45 298.164 539.099 283.367V283.37ZM580.709 283.512C619.942 313.062 726.938 292.029 751.282 251.35C728.072 234.052 701.334 228.924 673.22 228.927C670.612 228.927 667.377 231.324 665.49 233.516C643.291 259.303 616.547 277.477 580.709 283.512ZM544.781 217.699C545.678 214.265 546.157 213.147 546.239 212.004C547.505 194.8 546.031 177.319 552.649 160.66C553.779 157.813 551.975 153.177 550.353 149.961C542.239 133.866 528.358 123.16 514.011 113.264C507.412 108.712 499.598 105.928 492.335 102.344C491.025 103.188 489.714 104.029 488.404 104.873C488.404 117.147 487.787 129.469 488.722 141.674C489.072 146.263 492.212 151.312 495.472 154.884C506.477 166.95 518.796 177.874 529.24 190.378C535.429 197.789 539.039 207.355 544.781 217.702V217.699ZM577.553 209.361C578.772 208.816 579.585 208.725 579.831 208.303C591.935 187.509 607.343 169.634 626.169 154.582C628.78 152.493 630.969 148.081 630.919 144.78C630.746 133.368 629.571 121.963 628.626 110.571C628.059 103.748 624.245 102.303 618.897 105.855C608.354 112.851 597.249 119.305 587.856 127.645C573.604 140.304 561.055 154.512 572.262 175.883C572.816 176.941 572.634 178.381 572.832 179.638C574.391 189.484 575.96 199.33 577.553 209.358V209.361ZM616.818 230.568C626.421 227.491 633.382 223.809 640.592 223.23C659.44 221.718 670.369 212.546 676.256 194.504C682.313 175.949 685.617 157.451 684.615 135.749C673.122 140.751 663.282 145.255 653.269 149.325C642.806 153.577 640.393 161.571 638.39 172.173C635.562 187.143 629.117 201.452 623.946 215.944C622.418 220.222 619.971 224.174 616.818 230.565V230.568ZM499.598 228.704C498.552 225.034 498.404 223.727 497.837 222.637C487.664 203.1 480.586 182.614 478.416 160.56C478.246 158.831 477.267 156.427 475.919 155.681C463.449 148.786 450.815 142.187 437.253 134.987C436.112 139.642 435.35 141.416 435.29 143.208C434.453 168.339 441.593 191.449 453.864 213.043C455.471 215.869 459.383 218.01 462.68 219.103C468.312 220.971 474.347 221.582 480.127 223.047C486.076 224.556 491.929 226.455 499.598 228.704ZM550.463 265.177C551.534 232.631 509.92 170.957 490.621 167.039C489.78 191.754 512.921 244.796 550.463 265.177ZM570.8 263.004C599.488 253.174 632.705 185.89 627.382 164.327C600.937 193.6 576.256 221.749 570.8 263.004ZM642.63 143.608C650.608 139.797 657.011 136.811 663.352 133.693C669.774 130.533 679.632 128.622 681.598 123.642C683.894 117.834 679.478 109.235 677.557 101.959C676.681 98.6458 675.207 95.2976 673.207 92.5385C671.994 90.866 668.961 89.0329 667.264 89.4392C656.709 91.959 646.302 95.0929 636.966 97.7103C638.935 113.648 640.62 127.321 642.63 143.605V143.608ZM452.529 88.0533C450.755 89.7573 447.237 91.6818 446.05 94.5638C442.947 102.11 441.454 110.331 438.194 117.793C435.571 123.793 437.407 126.366 442.733 128.562C452.028 132.395 461.156 136.634 470.419 140.546C475.515 142.698 477.956 141.236 478.24 135.245C478.715 125.125 478.933 114.807 481.21 105.027C482.609 99.0143 480.841 96.315 476.337 94.7527C469.172 92.2645 461.723 90.5888 452.529 88.0533ZM650.368 231.964C627.234 232.008 590.357 254.179 583.05 272.434C603.913 273.628 646.365 248.106 650.368 231.964ZM539.319 270.497C527.681 260.749 518.436 250.853 507.252 244.241C496.08 237.636 482.968 234.32 468.451 228.691C475.871 248.323 518.578 274.828 539.316 270.497H539.319ZM559.282 251.344C570.593 229.16 569.767 180.567 558.495 172.872C549.282 198.681 552.529 224.004 559.282 251.344Z" />
                <path d="M1090.89 367.285C1097.63 383.862 1095.79 442.553 1087.67 450.248C1085.35 445.52 1082.66 441.47 1081.29 437.01C1073.85 412.694 1061.14 392.158 1039.72 377.729C1021.67 365.571 1002.05 362.277 980.298 364.377C957.954 366.535 940.895 377.162 926.372 392.498C906.402 413.585 909.316 452.106 935.704 469.59C953.658 481.487 974.537 485.122 994.264 492.155C1016.68 500.146 1038.55 509.686 1060.47 519.003C1079.39 527.044 1095.69 538.459 1107.45 556.003C1115.03 567.323 1120.06 579.273 1121.38 592.751C1124.8 627.841 1114.09 658.233 1088.12 681.837C1069.14 699.078 1045.99 709.126 1020.32 713.255C992.72 717.696 967.249 710.833 941.84 701.11C919.033 692.382 899.659 679.787 886.452 658.8C875.519 641.426 869.418 622.997 874.59 602.288C877.299 591.443 889.12 580.309 898.742 579.109C911.729 577.49 923.842 583.824 930.23 595.639C932.907 600.59 933.402 605.217 928.312 609.179C916.041 618.732 912.1 635.835 917.373 650.45C930.268 686.196 963.214 700.868 994.799 701.819C1022.86 702.663 1047.65 696.127 1070.17 679.289C1093.1 662.142 1103.22 630.443 1090.13 600.896C1081.93 582.41 1066.33 573.115 1050.1 563.676C1021.99 547.31 990.456 540.27 960.133 529.952C941.292 523.542 922.967 515.935 907.35 503.626C891.624 491.232 884.354 473.559 883.999 453.877C883.652 434.644 885.882 415.828 896.172 398.41C906.235 381.376 920.4 369.565 937.575 361.014C973.614 343.066 1009.42 342.638 1044.34 364.11C1052.86 369.348 1060.7 375.685 1069.13 381.099C1079.95 388.06 1083.42 386.542 1087.17 374.186C1087.77 372.211 1089.14 370.469 1090.88 367.288L1090.89 367.285Z" />
                <path d="M683.267 551.064C683.267 584.483 682.187 617.955 683.721 651.304C684.492 668.051 690.001 684.448 707.847 692.637C721.864 699.069 735.763 697.072 749.802 693.245C760.337 690.373 770.643 686.609 776.092 676.404C779.822 669.418 784.259 661.591 784.367 654.085C785.034 607.268 784.603 560.435 784.461 513.605C784.417 498.644 780.949 494.366 766.369 488.927C764.363 488.177 762.114 484.829 762.133 482.703C762.158 479.991 763.67 475.855 765.764 474.829C781.27 467.228 796.915 459.855 812.881 453.294C818.371 451.039 823.206 452.491 823.149 460.844C822.865 504.168 823.017 547.496 823.007 590.823C823.001 613.917 822.976 637.01 822.966 660.104C822.966 665.027 822.711 669.972 823.083 674.87C823.662 682.546 827.804 687.286 835.127 690.244C838.205 691.485 840.113 695.623 842.551 698.446C839.313 700.099 836.135 703.038 832.831 703.183C820.109 703.743 807.331 703.791 794.616 703.151C791.242 702.981 786.096 700.389 785.091 697.674C781.781 688.744 777.636 691.466 772.086 694.978C739.537 715.577 706.364 713.841 673.481 696.263C656.901 687.399 650.255 671.09 649.234 653.594C647.212 618.978 646.797 584.268 645.826 549.596C645.452 536.232 645.411 522.858 645.152 509.494C644.976 500.392 640.74 494.143 632.598 489.73C629.212 487.894 624.761 483.411 625.067 480.592C625.41 477.43 630.122 473.84 633.738 472.101C645.723 466.331 658.066 461.313 670.271 455.996C680.634 451.483 682.01 452.428 682.01 464.101C682.01 493.087 682.01 522.077 682.01 551.064C682.429 551.064 682.848 551.064 683.267 551.067V551.064Z" />
                <path d="M270.522 579.812C274.293 541.511 282.054 509.164 304.596 481.607C338.49 440.175 403.68 436.708 439.779 476.126C465.767 504.502 475.915 539.47 476.466 577.522C476.977 612.855 469.172 646.472 449.058 675.311C435.026 695.425 413.841 708.014 388.914 713.045C344.865 721.936 298.287 690.685 285.269 649.537C282.535 640.897 277.798 632.724 276.176 623.933C273.26 608.096 272 591.954 270.522 579.812ZM434.849 581.938C435.4 546.812 428.937 514.439 411.214 484.442C394.287 455.792 356.717 453.955 337.807 481.33C321.17 505.415 315.132 532.534 312.606 561.118C309.349 597.982 313.714 633.561 329.91 666.92C337.766 683.1 348.922 697.003 368.935 699.649C392.098 702.71 405.459 688.694 415.101 671.238C430.484 643.389 435.665 612.764 434.849 581.938Z" />
                <path d="M116.423 703.406C82.3114 703.406 48.1968 703.453 14.0854 703.331C10.7026 703.318 6.89464 703.038 4.041 701.491C-1.27256 698.609 -1.51824 694.971 4.32762 691.818C20.6841 682.993 22.2621 678.108 21.7329 659.411C21.0148 634.043 22.1518 608.628 22.1991 583.232C22.2463 558.831 21.8211 534.427 21.7802 510.027C21.7424 488.064 22.0668 466.097 22.0038 444.135C21.9471 424.099 22.1329 404.036 21.1219 384.038C20.6494 374.693 15.0146 367.757 5.43002 364.648C3.46145 364.009 2.10078 361.511 0.456628 359.87C2.12283 358.283 3.5339 356.069 5.52137 355.256C8.35611 354.097 11.6066 353.502 14.687 353.473C32.4357 353.316 50.1969 353.124 67.9329 353.621C71.6086 353.725 75.2056 356.683 78.8404 358.324C76.2482 361.02 74.1473 364.878 70.9787 366.22C56.1184 372.504 58.6665 386.259 58.4302 397.405C57.5672 437.86 58.0869 478.347 58.0964 518.82C58.1027 558.343 57.9987 597.869 58.2066 637.388C58.2728 649.893 59.2019 662.391 59.7059 674.892C60.0838 684.3 66.1155 691.251 74.1158 691.176C106.681 690.864 139.781 696.845 171.656 685.998C190.605 679.55 205.402 666.986 213.941 648.847C220.417 635.092 224.483 620.216 230.011 605.989C231.05 603.315 233.932 601.359 235.964 599.072C237.151 601.636 239.545 604.304 239.34 606.751C237.551 628.15 235.296 649.512 233.186 670.885C232.379 679.059 231.425 687.223 230.836 695.412C230.36 702.036 226.83 703.57 220.669 703.526C185.921 703.29 151.17 703.413 116.42 703.413L116.423 703.406Z" />
                <path d="M305.271 970.59C309.127 970.59 312.356 970.958 314.956 971.695C317.599 972.432 319.571 973.645 320.871 975.335C322.214 977.025 322.886 979.278 322.886 982.095C322.886 983.915 322.539 985.54 321.846 986.97C321.196 988.357 320.199 989.527 318.856 990.48C317.556 991.39 315.952 992.018 314.046 992.365V992.69C315.996 992.993 317.751 993.557 319.311 994.38C320.914 995.203 322.171 996.373 323.081 997.89C323.991 999.407 324.446 1001.38 324.446 1003.8C324.446 1006.62 323.796 1009.03 322.496 1011.02C321.196 1012.97 319.332 1014.46 316.906 1015.5C314.522 1016.5 311.662 1017 308.326 1017H292.011V970.59H305.271ZM306.441 990.35C310.427 990.35 313.157 989.722 314.631 988.465C316.104 987.165 316.841 985.258 316.841 982.745C316.841 980.188 315.931 978.368 314.111 977.285C312.334 976.158 309.474 975.595 305.531 975.595H297.861V990.35H306.441ZM297.861 995.225V1012.06H307.221C311.337 1012.06 314.197 1011.26 315.801 1009.65C317.404 1008.05 318.206 1005.95 318.206 1003.35C318.206 1001.7 317.837 1000.27 317.101 999.06C316.407 997.847 315.216 996.915 313.526 996.265C311.879 995.572 309.626 995.225 306.766 995.225H297.861ZM405.981 993.73C405.981 997.327 405.526 1000.6 404.616 1003.54C403.706 1006.45 402.341 1008.96 400.521 1011.08C398.744 1013.21 396.513 1014.83 393.826 1015.96C391.183 1017.09 388.106 1017.65 384.596 1017.65C380.956 1017.65 377.793 1017.09 375.106 1015.96C372.419 1014.79 370.188 1013.16 368.411 1011.08C366.634 1008.96 365.313 1006.43 364.446 1003.48C363.579 1000.53 363.146 997.262 363.146 993.665C363.146 988.898 363.926 984.738 365.486 981.185C367.046 977.632 369.408 974.858 372.571 972.865C375.778 970.872 379.808 969.875 384.661 969.875C389.298 969.875 393.198 970.872 396.361 972.865C399.524 974.815 401.908 977.588 403.511 981.185C405.158 984.738 405.981 988.92 405.981 993.73ZM369.321 993.73C369.321 997.63 369.863 1000.99 370.946 1003.8C372.029 1006.62 373.698 1008.79 375.951 1010.3C378.248 1011.82 381.129 1012.58 384.596 1012.58C388.106 1012.58 390.966 1011.82 393.176 1010.3C395.429 1008.79 397.098 1006.62 398.181 1003.8C399.264 1000.99 399.806 997.63 399.806 993.73C399.806 987.88 398.593 983.308 396.166 980.015C393.739 976.678 389.904 975.01 384.661 975.01C381.151 975.01 378.248 975.768 375.951 977.285C373.698 978.758 372.029 980.903 370.946 983.72C369.863 986.493 369.321 989.83 369.321 993.73ZM482.762 1000.62C482.762 1003.83 482.112 1006.73 480.812 1009.33C479.512 1011.89 477.519 1013.92 474.832 1015.44C472.189 1016.91 468.809 1017.65 464.692 1017.65C458.929 1017.65 454.531 1016.09 451.497 1012.97C448.507 1009.81 447.012 1005.65 447.012 1000.49V970.59H452.862V1000.68C452.862 1004.45 453.859 1007.38 455.852 1009.46C457.889 1011.54 460.944 1012.58 465.017 1012.58C467.834 1012.58 470.109 1012.08 471.842 1011.08C473.619 1010.04 474.919 1008.64 475.742 1006.86C476.566 1005.04 476.977 1002.96 476.977 1000.62V970.59H482.762V1000.62ZM540.901 1017H535.051V975.725H520.556V970.59H555.331V975.725H540.901V1017ZM606.594 1017H589.824V1013.62L595.284 1012.38V975.27L589.824 973.97V970.59H606.594V973.97L601.134 975.27V1012.38L606.594 1013.62V1017ZM687.251 993.73C687.251 997.5 686.731 1000.92 685.691 1004C684.694 1007.08 683.199 1009.68 681.206 1011.8C679.213 1013.92 676.721 1015.48 673.731 1016.48L684.846 1028.05H676.461L667.491 1017.59C667.231 1017.59 666.949 1017.59 666.646 1017.59C666.386 1017.63 666.126 1017.65 665.866 1017.65C662.226 1017.65 659.063 1017.09 656.376 1015.96C653.689 1014.79 651.458 1013.16 649.681 1011.08C647.904 1008.96 646.583 1006.43 645.716 1003.48C644.849 1000.53 644.416 997.262 644.416 993.665C644.416 988.898 645.196 984.738 646.756 981.185C648.316 977.632 650.678 974.858 653.841 972.865C657.048 970.872 661.078 969.875 665.931 969.875C670.568 969.875 674.468 970.872 677.631 972.865C680.794 974.815 683.178 977.588 684.781 981.185C686.428 984.738 687.251 988.92 687.251 993.73ZM650.591 993.73C650.591 997.63 651.133 1000.99 652.216 1003.8C653.299 1006.62 654.968 1008.79 657.221 1010.3C659.518 1011.82 662.399 1012.58 665.866 1012.58C669.376 1012.58 672.236 1011.82 674.446 1010.3C676.699 1008.79 678.368 1006.62 679.451 1003.8C680.534 1000.99 681.076 997.63 681.076 993.73C681.076 987.88 679.863 983.308 677.436 980.015C675.009 976.678 671.174 975.01 665.931 975.01C662.421 975.01 659.518 975.768 657.221 977.285C654.968 978.758 653.299 980.903 652.216 983.72C651.133 986.493 650.591 989.83 650.591 993.73ZM764.032 1000.62C764.032 1003.83 763.382 1006.73 762.082 1009.33C760.782 1011.89 758.789 1013.92 756.102 1015.44C753.459 1016.91 750.079 1017.65 745.962 1017.65C740.199 1017.65 735.8 1016.09 732.767 1012.97C729.777 1009.81 728.282 1005.65 728.282 1000.49V970.59H734.132V1000.68C734.132 1004.45 735.129 1007.38 737.122 1009.46C739.159 1011.54 742.214 1012.58 746.287 1012.58C749.104 1012.58 751.379 1012.08 753.112 1011.08C754.889 1010.04 756.189 1008.64 757.012 1006.86C757.835 1005.04 758.247 1002.96 758.247 1000.62V970.59H764.032V1000.62ZM833.416 1017H807.481V970.59H833.416V975.725H813.331V990.22H832.246V995.29H813.331V1011.86H833.416V1017Z" />
            </g>
            <defs>
                <clipPath id="clip0_59_77">
                    <rect width="1122" height="1021.61" fill="white"/>
                </clipPath>
            </defs>
    </symbol>
    <symbol id="logo-min" viewBox="0 0 58 83">
            <path d="M30.2334 46.5184C30.2334 47.4479 30.2495 48.3778 30.2277 49.3066C30.2156 49.7978 30.3819 50.0089 30.8961 49.9907C31.7444 49.9606 32.5968 49.9445 33.4419 50.0058C33.7026 50.0247 33.944 50.314 34.1934 50.4794C33.9496 50.6865 33.7188 51.0487 33.458 51.0718C32.6686 51.1426 31.8671 51.091 31.0712 51.0688C30.5716 51.0547 30.3367 51.2002 30.3431 51.7758C30.3746 54.7019 30.2907 57.6307 30.3883 60.554C30.4933 63.6882 31.0607 66.742 32.4765 69.5904C32.7211 70.0813 32.9689 70.1688 33.4952 70.0222C35.8642 69.3627 38.2188 68.5793 40.6346 68.1783C43.4565 67.7109 46.3261 67.5764 49.2004 68.0414C51.0973 68.3485 52.9457 68.7746 54.6489 69.6568C56.0889 70.4038 57.2536 71.4748 57.8299 73.0675C58.2916 74.3426 57.746 75.4217 56.9994 76.3218C55.6514 77.9469 53.7916 78.7012 51.7495 79.1281C49.2464 79.6523 46.7571 79.4635 44.2815 79.09C41.2174 78.6274 38.2954 77.6375 35.7512 75.8438C34.3411 74.8506 33.1279 73.5641 31.8873 72.3481C31.4151 71.8847 31.0034 71.7227 30.4093 71.9997C29.7386 72.3133 29.0678 72.6308 28.3777 72.8957C27.853 73.0967 27.9353 73.4385 28.1791 73.7294C29.448 75.2476 30.3746 76.9318 30.5659 78.9248C30.6483 79.7754 30.6378 80.6779 30.44 81.501C30.2204 82.4116 29.4674 82.9041 28.5133 82.9892C27.4551 83.0832 26.7254 82.5906 26.1951 81.6962C25.9561 81.292 26.0756 81.0238 26.3848 80.7735C27.2848 80.0476 27.4874 79.0641 27.2718 78.0134C27.0628 76.9942 26.7843 75.9759 26.4065 75.0086C26.0409 74.0712 25.5542 73.9513 24.6501 74.3475C23.3473 74.9178 22.0688 75.5619 20.7305 76.0334C16.835 77.4066 12.9259 78.7668 8.69305 78.5156C6.19806 78.3682 3.77895 77.9056 1.68998 76.4441C-0.367514 75.0045 -0.608855 72.9581 1.31142 71.1418C3.01133 69.5337 5.09385 68.7082 7.39511 68.4108C9.3622 68.1565 11.3341 67.6768 13.2964 67.7133C15.278 67.7498 17.2645 68.2294 19.2243 68.6377C22.0066 69.2177 24.4491 70.5609 26.7165 72.2525C26.8909 72.3821 27.2291 72.4299 27.4333 72.3554C28.3607 72.0192 29.2527 71.5825 30.1874 71.2706C30.7064 71.0964 30.6717 70.8501 30.5022 70.4694C29.7733 68.8272 28.933 67.2232 28.3591 65.5284C27.8804 64.1156 27.5382 62.6065 27.4502 61.1212C27.2678 58.0581 27.2807 54.9828 27.2484 51.9124C27.2412 51.2209 26.9772 51.0139 26.3186 51.0474C25.856 51.0709 25.1126 51.3212 25.0836 50.5516C25.0553 49.7659 25.8108 49.9632 26.2701 49.9932C27.0079 50.042 27.1782 49.7789 27.1491 49.0586C27.1031 47.904 27.1734 46.7411 27.2654 45.5875C27.2839 45.3555 27.5802 45.033 27.8167 44.9526C28.4996 44.7205 28.8297 44.2479 29.0952 43.6166C29.2155 43.3295 29.5933 43.1514 29.854 42.9238C29.9872 43.2188 30.2172 43.5084 30.2342 43.8097C30.285 44.7103 30.2519 45.6153 30.2519 46.5186C30.2463 46.5186 30.2398 46.5186 30.2342 46.5186L30.2334 46.5184ZM48.5296 78.5375C49.2682 78.3804 50.8164 78.271 52.1821 77.7144C55.2171 76.4765 55.7644 72.9387 52.9998 70.7975C51.27 69.4575 49.248 68.9739 47.1147 68.8208C42.6009 68.4967 38.2898 69.4478 34.0432 70.8534C33.5283 71.0235 33.5291 71.2504 33.7874 71.6352C35.3525 73.9724 37.4035 75.7296 39.9558 76.9108C42.4355 78.0571 45.0798 78.3366 48.5296 78.5375ZM13.3133 68.9269C12.4149 68.9269 11.5044 68.8345 10.6198 68.9447C8.47027 69.2121 6.39582 69.7621 4.62811 71.1053C3.79106 71.7413 3.19941 72.5693 3.12837 73.6605C3.02667 75.2184 4.03402 76.0771 5.24398 76.6669C7.86488 77.9429 10.6577 77.6901 13.3949 77.2567C15.1521 76.978 16.8843 76.4417 18.5729 75.8608C20.5787 75.1698 22.5264 74.3086 24.4976 73.5163C24.9633 73.3292 25.0376 73.0375 24.6195 72.7288C23.5943 71.973 22.6209 71.1078 21.5037 70.5229C18.9531 69.1878 16.174 68.7649 13.3133 68.9261V68.9269Z"/>
            <path d="M42.6724 27.7758C43.1495 28.3198 43.6539 28.8462 44.1011 29.4177C44.6379 30.1038 44.6032 30.2106 44.0051 30.8394C42.7999 32.1064 41.4665 33.2039 39.8473 33.8954C38.1579 34.6171 36.42 34.6971 34.6507 34.1813C32.5294 33.5631 30.9732 32.1172 29.4605 30.6214C29.1086 30.2736 28.9391 30.1953 28.5218 30.563C27.3845 31.5649 26.2415 32.5807 24.9896 33.4267C23.4543 34.4649 21.7189 34.7073 19.8681 34.3552C17.2641 33.8595 15.4302 32.2161 13.694 30.3989C13.6108 30.312 13.5971 30.0381 13.6697 29.9425C14.0951 29.387 14.5278 28.8314 15.0145 28.3308C15.3664 27.9678 15.473 27.7265 15.0775 27.2941C14.1363 26.2637 13.5188 25.0386 13.1588 23.6864C12.9724 22.9879 12.7907 22.2882 12.5889 21.5943C12.4493 21.1143 12.5357 20.7589 13.0087 20.5105C14.0564 19.9598 15.1614 19.5417 16.331 19.4368C17.4393 19.3375 18.5637 19.4038 19.6808 19.4198C20.1288 19.4262 20.4024 19.3478 20.5033 18.8146C20.622 18.1916 20.9029 17.601 21.0925 16.9899C21.2499 16.4826 21.6156 16.4447 22.0337 16.5488C22.5334 16.6733 23.029 16.8168 23.5189 16.974C23.9031 17.0972 24.1413 17.0119 24.3011 16.615C24.9961 14.8841 26.0292 13.3818 27.4184 12.1351C27.7574 11.8307 28.1198 11.5364 28.5161 11.318C28.6865 11.2238 29.0239 11.2535 29.195 11.3653C30.5438 12.2471 31.6746 13.36 32.4891 14.7592C32.8878 15.444 33.1736 16.1946 33.5747 16.8776C33.6546 17.0134 34.0429 17.0524 34.2608 17.0055C34.8589 16.8773 35.4514 16.7079 36.0269 16.5003C36.4241 16.357 36.684 16.4603 36.8277 16.8168C37.0972 17.4883 37.3814 18.1609 37.5654 18.8581C37.6865 19.3163 37.8592 19.4853 38.333 19.4175C39.7714 19.2116 41.2211 19.1537 42.6304 19.5575C43.503 19.8076 44.3554 20.1614 45.173 20.5586C45.3643 20.6515 45.487 21.1208 45.4564 21.3968C45.2602 23.2097 44.6774 24.8999 43.679 26.4313C43.373 26.9004 43.0082 27.3308 42.6724 27.776V27.7758ZM20.0876 20.0255C19.3967 19.9646 18.7735 19.8798 18.1488 19.8607C16.6272 19.8138 15.1485 20.032 13.7634 20.7075C13.3776 20.8954 13.0692 21.1007 13.1564 21.6461C13.4801 23.6713 14.221 25.499 15.5634 27.0678C15.8298 27.3795 16.0243 27.2155 16.3116 27.0811C17.1898 26.6704 18.0786 26.2621 18.9995 25.9675C19.7308 25.7334 20.5162 25.6679 21.2943 25.5242C20.429 23.8049 20.0053 22.0142 20.0876 20.0255ZM36.6638 25.5468C36.8034 25.609 36.8607 25.659 36.9164 25.6559C38.605 25.56 40.1468 26.0586 41.527 26.9686C42.134 27.3683 42.4149 27.1416 42.7192 26.7053C43.7992 25.1588 44.5523 23.4861 44.7452 21.5787C44.7872 21.1594 44.6694 20.9638 44.3223 20.7981C42.2478 19.8078 40.0814 19.6639 37.7656 20.0461C37.9803 22.0035 37.5186 23.8219 36.663 25.547L36.6638 25.5468ZM33.1824 17.3074C33.0614 17.064 32.9815 16.9219 32.9193 16.7722C32.1396 14.8914 31.0047 13.2874 29.3346 12.0853C28.9674 11.8211 28.63 11.8145 28.3023 12.0724C26.679 13.35 25.4795 14.9447 24.8039 16.9072C24.7571 17.0422 24.904 17.3296 25.0437 17.4276C25.5361 17.7721 26.1108 18.0078 26.5684 18.3892C27.4224 19.1012 28.2151 19.8862 29.1006 20.7023C30.0102 19.1653 31.5527 18.1746 33.1824 17.3074ZM27.4144 30.9973C27.3982 30.9433 27.3813 30.8894 27.3651 30.8355C27.1351 30.8687 26.8978 30.8768 26.6766 30.9409C26.3005 31.0498 25.9437 31.2444 25.5627 31.3148C22.3299 31.9113 19.4411 31.0692 16.7911 29.1992C16.402 28.9246 16.1413 28.2059 15.5771 28.4778C15.1235 28.6965 14.82 29.2309 14.4551 29.6299C14.1072 30.0105 14.2211 30.3583 14.5689 30.6524C15.3987 31.3525 16.1865 32.1187 17.0857 32.7145C18.5951 33.7143 20.3096 34.0635 22.1064 33.8642C24.2623 33.6251 25.8048 32.2423 27.4144 30.997V30.9973ZM30.7246 30.8394C30.6963 30.8886 30.6689 30.9377 30.6414 30.9871C30.7657 31.1418 30.8667 31.327 31.0192 31.4454C31.3784 31.7238 31.7723 31.9571 32.1339 32.2317C33.0073 32.8936 33.942 33.4242 35.0268 33.6446C38.5114 34.3527 41.1985 32.9117 43.5232 30.484C43.9744 30.0125 43.5603 29.7032 43.3101 29.4161C42.9606 29.0158 42.712 28.408 41.9984 28.55C41.925 28.5648 41.862 28.6436 41.7983 28.6974C40.2783 29.9814 38.5671 30.8706 36.6137 31.3036C35.1576 31.6262 33.712 31.5972 32.2663 31.2973C31.7432 31.1887 31.2379 30.9946 30.7246 30.8394ZM27.5782 29.92C27.4426 29.9026 27.3062 29.8869 27.1714 29.867C27.0261 29.8458 26.8719 29.8465 26.7396 29.7937C24.9622 29.0887 23.2929 28.2238 22.0894 26.6562C21.9707 26.5018 21.7213 26.3908 21.5195 26.3678C19.9254 26.1853 18.4587 26.6293 17.0583 27.3443C16.285 27.7387 16.243 27.9772 16.9388 28.4791C18.5354 29.6298 20.2063 30.5922 22.2412 30.7907C24.1001 30.972 25.892 30.8942 27.5782 29.9199V29.92ZM30.3129 29.9294C32.8919 31.8751 39.924 30.4902 41.5246 27.8117C39.999 26.6727 38.241 26.3351 36.3934 26.3353C36.2223 26.3353 36.0092 26.4931 35.8857 26.6374C34.4263 28.3354 32.6683 29.5321 30.3129 29.9294ZM27.9511 25.5959C28.01 25.3699 28.0415 25.2963 28.0472 25.221C28.1303 24.0882 28.0335 22.9371 28.4685 21.8402C28.5428 21.6528 28.4241 21.3475 28.3176 21.1357C27.784 20.076 26.8719 19.371 25.9292 18.7194C25.4949 18.4198 24.9815 18.2364 24.5037 18.0003C24.4181 18.0559 24.3317 18.1113 24.2454 18.1669C24.2454 18.9751 24.205 19.7865 24.2664 20.5901C24.2898 20.8923 24.4956 21.2247 24.7103 21.4599C25.4335 22.2544 26.2431 22.9737 26.9301 23.797C27.3369 24.285 27.5742 24.9149 27.9511 25.5962V25.5959ZM30.1055 25.047C30.1854 25.0111 30.2387 25.0051 30.2548 24.9773C31.0507 23.6081 32.0637 22.4311 33.3011 21.44C33.4722 21.3025 33.6167 21.0119 33.6135 20.7946C33.6014 20.0432 33.5247 19.2922 33.4625 18.5421C33.4254 18.0929 33.1744 17.9977 32.8232 18.2316C32.1299 18.6922 31.4002 19.1172 30.7827 19.6664C29.8456 20.4999 29.0206 21.4354 29.7576 22.8426C29.7939 22.9123 29.7818 23.0071 29.7947 23.0898C29.8972 23.7381 30.0005 24.3864 30.1055 25.0467V25.047ZM32.686 26.4433C33.3172 26.2407 33.7749 25.9982 34.2487 25.9601C35.4877 25.8605 36.2061 25.2566 36.5928 24.0687C36.9915 22.8469 37.2086 21.6289 37.1424 20.1999C36.3869 20.5293 35.7404 20.8259 35.0825 21.0939C34.394 21.3738 34.2358 21.9002 34.1042 22.5983C33.9186 23.584 33.4948 24.5262 33.155 25.4804C33.0541 25.762 32.8935 26.0223 32.686 26.4431V26.4433ZM24.9815 26.3206C24.9129 26.0789 24.9032 25.9929 24.8661 25.9211C24.1969 24.6346 23.732 23.2857 23.5891 21.8336C23.5778 21.7198 23.5133 21.5615 23.4253 21.5124C22.6052 21.0584 21.7754 20.6239 20.8835 20.1498C20.8084 20.4564 20.7584 20.5731 20.7543 20.6911C20.6995 22.3459 21.1692 23.8675 21.9756 25.2894C22.0813 25.4755 22.338 25.6164 22.5551 25.6884C22.9248 25.8114 23.322 25.8516 23.7013 25.9481C24.0928 26.0474 24.477 26.1725 24.9815 26.3206ZM28.3248 28.7222C28.3951 26.5792 25.6595 22.5182 24.3915 22.2602C24.3358 23.8876 25.8573 27.3801 28.3248 28.7222ZM29.6615 28.5791C31.5471 27.9318 33.7305 23.5015 33.3802 22.0816C31.6424 24.0092 30.0199 25.8626 29.6615 28.5791ZM34.3827 20.7175C34.9074 20.4665 35.3279 20.2699 35.7452 20.0646C36.1666 19.8565 36.8147 19.7306 36.9439 19.4028C37.0948 19.0203 36.805 18.4542 36.6783 17.9751C36.621 17.7569 36.5241 17.5365 36.3926 17.3548C36.3127 17.2447 36.1133 17.1239 36.0019 17.1507C35.3085 17.3166 34.624 17.5229 34.0106 17.6953C34.1397 18.7447 34.2503 19.645 34.3827 20.7172V20.7175ZM21.8876 17.0595C21.7714 17.1717 21.5397 17.2984 21.4614 17.4881C21.258 17.985 21.1595 18.5263 20.9456 19.0176C20.7729 19.4127 20.894 19.5821 21.2435 19.7267C21.8545 19.9791 22.4551 20.2583 23.0637 20.5158C23.3987 20.6575 23.5593 20.5613 23.5778 20.1668C23.6085 19.5005 23.623 18.821 23.7732 18.177C23.8644 17.7811 23.749 17.6035 23.4527 17.5006C22.9813 17.3367 22.4922 17.2263 21.8876 17.0595ZM34.8912 26.5352C33.3705 26.5381 30.9474 27.998 30.4663 29.2C31.8377 29.2786 34.6281 27.5981 34.8912 26.5352ZM27.5919 29.0725C26.8275 28.4306 26.2197 27.7789 25.4844 27.3436C24.7499 26.9088 23.8886 26.6903 22.9345 26.3197C23.4221 27.6124 26.2294 29.3576 27.5919 29.0725ZM28.9044 27.8113C29.6478 26.3507 29.5937 23.1509 28.8527 22.6443C28.2474 24.3437 28.4605 26.0111 28.9044 27.8113Z"/>
            <path d="M55.4824 37.937C56.0272 39.2799 55.8787 44.0348 55.2233 44.6582C55.036 44.2752 54.8181 43.947 54.7083 43.5857C54.1078 41.6158 53.0818 39.952 51.3529 38.7832C49.8959 37.7982 48.3122 37.5313 46.5558 37.7015C44.7526 37.8763 43.3755 38.7372 42.2035 39.9797C40.5916 41.688 40.8265 44.8087 42.9566 46.2252C44.4055 47.1889 46.0909 47.4834 47.6834 48.0532C49.4923 48.7005 51.2584 49.4735 53.0277 50.2283C54.5549 50.8797 55.8706 51.8044 56.8191 53.2257C57.4317 54.1428 57.8377 55.1109 57.9443 56.2028C58.2203 59.0456 57.3558 61.5078 55.2588 63.42C53.7276 64.8171 51.8582 65.6305 49.7869 65.9651C47.5591 66.3248 45.5024 65.769 43.4522 64.9816C41.611 64.2743 40.0467 63.2539 38.9813 61.5537C38.099 60.1462 37.6058 58.6532 38.024 56.9754C38.2419 56.0969 39.1968 55.1949 39.9733 55.0977C41.021 54.9665 41.9993 55.4797 42.5151 56.4367C42.7306 56.8379 42.771 57.2128 42.3601 57.5337C41.3697 58.3077 41.0517 59.6932 41.477 60.8773C42.5175 63.7732 45.1771 64.9621 47.7262 65.0391C49.9911 65.1071 51.9929 64.5773 53.8099 63.2135C55.6607 61.8244 56.4784 59.2564 55.421 56.8626C54.7599 55.3651 53.4999 54.6121 52.1907 53.8473C49.9217 52.5214 47.3759 51.9512 44.9285 51.1152C43.4078 50.5959 41.9282 49.9797 40.6682 48.9825C39.3986 47.9785 38.8117 46.5467 38.7827 44.9521C38.7552 43.3941 38.9352 41.8697 39.7658 40.4586C40.5778 39.0786 41.7216 38.1218 43.1075 37.429C46.0166 35.975 48.9071 35.9403 51.7258 37.6798C52.4135 38.1041 53.0463 38.6175 53.7259 39.0562C54.6001 39.6201 54.8794 39.4971 55.1821 38.4961C55.2305 38.3361 55.3419 38.195 55.4824 37.9372V37.937Z"/>
            <path d="M11.9157 65.1676C9.16243 65.1676 6.40915 65.1717 3.65587 65.1619C3.38223 65.1611 3.07551 65.1384 2.84466 65.0129C2.41605 64.7796 2.39586 64.4847 2.86806 64.2291C4.18779 63.5142 4.31533 63.1184 4.27255 61.6037C4.21524 59.5486 4.30645 57.4896 4.31048 55.4322C4.31452 53.4554 4.27982 51.4784 4.27659 49.5015C4.27336 47.7222 4.3 45.9427 4.29434 44.1634C4.29031 42.5403 4.30484 40.9148 4.22331 39.2948C4.18538 38.5377 3.73094 37.9758 2.95686 37.724C2.79784 37.6722 2.68806 37.4698 2.55568 37.3369C2.68967 37.2082 2.80349 37.0289 2.96412 36.9631C3.19336 36.8691 3.45568 36.8209 3.70429 36.8186C5.13703 36.8058 6.57059 36.7903 8.00171 36.8306C8.29875 36.8391 8.58933 37.0786 8.88234 37.2116C8.67328 37.43 8.50377 37.7426 8.2479 37.8513C7.04843 38.3603 7.25427 39.4747 7.23489 40.3777C7.16548 43.6551 7.20744 46.935 7.20825 50.214C7.20825 53.4159 7.20018 56.6179 7.21713 59.8196C7.22197 60.8326 7.29704 61.8451 7.33821 62.8578C7.36807 63.6201 7.85561 64.1832 8.50135 64.1771C11.1295 64.1519 13.8013 64.6362 16.3746 63.7576C17.9042 63.2353 19.098 62.2174 19.7873 60.7479C20.3103 59.6336 20.6381 58.4284 21.0844 57.2758C21.1684 57.0591 21.4008 56.9007 21.5647 56.7155C21.6608 56.9231 21.8545 57.1393 21.8375 57.3376C21.693 59.0712 21.5114 60.8017 21.3411 62.5333C21.2757 63.1955 21.199 63.8569 21.1514 64.5203C21.1127 65.0566 20.8278 65.1814 20.3305 65.1773C17.5256 65.1587 14.7207 65.1684 11.9157 65.1684V65.1676Z"/>
            <path fill-rule="evenodd" clip-rule="evenodd" d="M54.9851 33.0535V26.5319C54.9851 12.3709 43.5474 0.891148 29.438 0.891148C15.3285 0.891148 3.89082 12.3709 3.89082 26.5319V33.0535H3.00293V26.5319C3.00293 11.8788 14.8386 0 29.438 0C44.0374 0 55.873 11.8788 55.873 26.5319V33.0535H54.9851Z"/>
    </symbol>
    <symbol id="circle-arrow" viewBox="0 0 32 32">
        <circle cx="16" cy="16" r="15.5"/>
        <path d="M10 13L16 19L22 13" stroke-linecap="round" stroke-linejoin="round"/>
    </symbol>

    <symbol id="minus" viewBox="0 0 44 44">
        <path d="M9.16675 22H34.8334" stroke-linecap="round" stroke-linejoin="round"/>
    </symbol>
    <symbol id="plus" viewBox="0 0 44 44">
        <path d="M21.9998 9.16602V34.8327M9.1665 21.9993H34.8332" stroke-linecap="round" stroke-linejoin="round"/>
    </symbol>
    <symbol id="close" viewBox="0 0 34 34" >
        <path d="M33 1L1 33M1 1L33 33" stroke-linecap="round" stroke-linejoin="round"/>
    </symbol>
    <symbol id="alert-success" viewBox="0 0 24 25">
        <path d="M9 12.5L11 14.5L15.5 10M7.33377 4.3187C8.1376 4.25455 8.90071 3.93846 9.51447 3.41542C10.9467 2.19486 13.0533 2.19486 14.4855 3.41542C15.0993 3.93846 15.8624 4.25455 16.6662 4.3187C18.5421 4.46839 20.0316 5.95794 20.1813 7.83377C20.2455 8.6376 20.5615 9.40071 21.0846 10.0145C22.3051 11.4467 22.3051 13.5533 21.0846 14.9855C20.5615 15.5993 20.2455 16.3624 20.1813 17.1662C20.0316 19.0421 18.5421 20.5316 16.6662 20.6813C15.8624 20.7455 15.0993 21.0615 14.4855 21.5846C13.0533 22.8051 10.9467 22.8051 9.51447 21.5846C8.90071 21.0615 8.1376 20.7455 7.33377 20.6813C5.45794 20.5316 3.96839 19.0421 3.8187 17.1662C3.75455 16.3624 3.43846 15.5993 2.91542 14.9855C1.69486 13.5533 1.69486 11.4467 2.91542 10.0145C3.43846 9.40071 3.75455 8.6376 3.8187 7.83377C3.96839 5.95794 5.45794 4.46839 7.33377 4.3187Z"/>
    </symbol>
    <symbol id="arrow-back" viewBox="0 0 24 24">
        <path d="M15 18L9 12L15 6"/>
    </symbol>

    <symbol id="bin" viewBox="0 0 44 44">
        <path d="M14.3001 36.1169C13.5362 36.1169 12.8869 35.8496 12.3522 35.3148C11.8175 34.7801 11.5501 34.1308 11.5501 33.3669V11.0003H9.7168V9.71693H16.5001V8.43359H27.5001V9.71693H34.2835V11.0003H32.4501V33.3669C32.4501 34.1614 32.1904 34.8183 31.671 35.3378C31.1515 35.8572 30.4946 36.1169 29.7001 36.1169H14.3001ZM31.1668 11.0003H12.8335V33.3669C12.8335 33.7947 12.971 34.1461 13.246 34.4211C13.521 34.6961 13.8724 34.8336 14.3001 34.8336H29.7001C30.0668 34.8336 30.4029 34.6808 30.7085 34.3753C31.014 34.0697 31.1668 33.7336 31.1668 33.3669V11.0003ZM18.4251 31.1669H19.7085V14.6669H18.4251V31.1669ZM24.2918 31.1669H25.5751V14.6669H24.2918V31.1669Z"/>
    </symbol>

    <symbol id="carousel-next" viewBox="0 0 32 32">
        <path d="M13 22L19 16L13 10"/>
    </symbol>
    <symbol id="carousel-prev" viewBox="0 0 32 32">
        <path d="M19 10L13 16L19 22"/>
    </symbol>
    <symbol id="logout" viewBox="0 0 22 20">
        <path d="M17 6L21 10M21 10L17 14M21 10H8M14 2.20404C12.7252 1.43827 11.2452 1 9.66667 1C4.8802 1 1 5.02944 1 10C1 14.9706 4.8802 19 9.66667 19C11.2452 19 12.7252 18.5617 14 17.796" stroke-linecap="round" stroke-linejoin="round"/>
    </symbol>

    <symbol id="filter" viewBox="0 0 16 16">
        <path d="M2 3.88C2 3.57197 2 3.41796 2.05995 3.30031C2.11268 3.19682 2.19682 3.11268 2.30031 3.05995C2.41796 3 2.57197 3 2.88 3H12.12C12.428 3 12.582 3 12.6997 3.05995C12.8032 3.11268 12.8873 3.19682 12.9401 3.30031C13 3.41796 13 3.57197 13 3.88V4.24817C13 4.39601 13 4.46992 12.9819 4.53866C12.9659 4.59957 12.9396 4.65728 12.904 4.70927C12.8639 4.76794 12.8081 4.81635 12.6963 4.91317L9.17866 7.96183C9.06694 8.05865 9.01108 8.10706 8.97097 8.16573C8.93543 8.21772 8.90907 8.27543 8.89307 8.33634C8.875 8.40508 8.875 8.479 8.875 8.62683V11.5021C8.875 11.6097 8.875 11.6634 8.85765 11.7099C8.84232 11.751 8.81739 11.7879 8.78494 11.8173C8.74821 11.8507 8.69828 11.8707 8.59841 11.9106L6.72841 12.6586C6.52626 12.7395 6.42519 12.7799 6.34405 12.7631C6.2731 12.7483 6.21083 12.7062 6.17079 12.6458C6.125 12.5767 6.125 12.4678 6.125 12.2501V8.62683C6.125 8.479 6.125 8.40508 6.10693 8.33634C6.09093 8.27543 6.06457 8.21772 6.02903 8.16573C5.98892 8.10706 5.93306 8.05865 5.82134 7.96183L2.30366 4.91317C2.19194 4.81635 2.13608 4.76794 2.09597 4.70927C2.06043 4.65728 2.03407 4.59957 2.01807 4.53866C2 4.46992 2 4.396 2 4.24817V3.88Z" stroke-width="0.7" stroke-linecap="round" stroke-linejoin="round"/>
    </symbol>




</svg>
