<svg xmlns="http://www.w3.org/2000/svg" style="display: none;">
    <symbol id="arrow-circle-right" viewBox="0 0 37 22">
        <path d="M26 15L30 11M30 11L26 7M30 11H0.5M36 11C36 16.5228 31.5228 21 26 21C20.4772 21 16 16.5228 16 11C16 5.47715 20.4772 1 26 1C31.5228 1 36 5.47715 36 11Z" stroke-linecap="round" stroke-linejoin="round"/>
    </symbol>
    <symbol id="cart" viewBox="0 0 20 20">
        <path d="M13.9996 6C13.9996 7.06087 13.5782 8.07828 12.828 8.82843C12.0779 9.57857 11.0605 10 9.99959 10C8.93872 10 7.92131 9.57857 7.17116 8.82843C6.42102 8.07828 5.99959 7.06087 5.99959 6M1.63281 5.40138L0.932807 13.8014C0.78243 15.6059 0.707241 16.5082 1.01227 17.2042C1.28027 17.8157 1.74462 18.3204 2.33177 18.6382C3.00006 19 3.90545 19 5.71623 19H14.283C16.0937 19 16.9991 19 17.6674 18.6382C18.2546 18.3204 18.7189 17.8157 18.9869 17.2042C19.2919 16.5082 19.2167 15.6059 19.0664 13.8014L18.3664 5.40138C18.237 3.84875 18.1723 3.07243 17.8285 2.48486C17.5257 1.96744 17.0748 1.5526 16.5341 1.29385C15.92 1 15.141 1 13.583 1L6.41623 1C4.85821 1 4.07921 1 3.4651 1.29384C2.92433 1.5526 2.47349 1.96744 2.17071 2.48486C1.82689 3.07243 1.76219 3.84875 1.63281 5.40138Z" stroke-linecap="round" stroke-linejoin="round"/>
    </symbol>
    <symbol id="arrow-down" viewBox="0 0 8 6">
        <path d="M0.5 1.25L4 4.75L7.5 1.25" stroke-linecap="round" stroke-linejoin="round"/>
    </symbol>
    <symbol id="facebook" viewBox="0 0 40 40">
        <path d="M40 20C40 8.95312 31.0469 0 20 0C8.95312 0 0 8.95312 0 20C0 29.9836 7.30938 38.2578 16.8766 39.7586V25.7859H11.8023V20H16.8766V15.5945C16.8766 10.5859 19.857 7.81406 24.4273 7.81406C26.6188 7.81406 28.9094 8.20859 28.9094 8.20859V13.1289H26.3891C23.9016 13.1289 23.1344 14.6742 23.1344 16.2523V20H28.6797L27.7922 25.7859H23.1344V39.7586C32.6906 38.2578 40 29.9836 40 20Z"/>
    </symbol>
    <symbol id="instagram" viewBox="0 0 24 24">
        <path d="M0 12C0 6.288 0 4.032 2.016 2.016C4.032 0 6.24 0 12 0C17.76 0 19.968 0 21.984 2.016C24 4.032 24 6.288 24 12C24 17.712 24 19.968 21.984 21.984C19.968 24 17.76 24 12 24C6.24 24 4.032 24 2.016 21.984C0 19.968 0 17.712 0 12ZM21.84 12C21.84 6.528 21.84 4.896 20.448 3.552C19.056 2.16 17.472 2.16 12 2.16C6.528 2.16 4.896 2.16 3.552 3.552C2.16 4.944 2.16 6.528 2.16 12C2.16 17.472 2.16 19.104 3.552 20.448C4.944 21.84 6.528 21.84 12 21.84C17.472 21.84 19.104 21.84 20.448 20.448C21.84 19.056 21.84 17.472 21.84 12ZM12 5.856C13.6295 5.856 15.1922 6.50331 16.3445 7.65554C17.4967 8.80776 18.144 10.3705 18.144 12C18.144 13.6295 17.4967 15.1922 16.3445 16.3445C15.1922 17.4967 13.6295 18.144 12 18.144C10.3705 18.144 8.80776 17.4967 7.65554 16.3445C6.50331 15.1922 5.856 13.6295 5.856 12C5.856 10.3705 6.50331 8.80776 7.65554 7.65554C8.80776 6.50331 10.3705 5.856 12 5.856ZM12 15.984C14.208 15.984 15.984 14.208 15.984 12C15.984 9.792 14.208 8.016 12 8.016C9.792 8.016 8.016 9.792 8.016 12C8.016 14.208 9.792 15.984 12 15.984ZM19.824 5.616C19.824 6.384 19.2 7.056 18.384 7.056C17.616 7.056 16.944 6.384 16.944 5.616C16.944 4.8 17.616 4.176 18.384 4.176C19.2 4.176 19.824 4.8 19.824 5.616Z"/>
    </symbol>
    <symbol id="heart" viewBox="0 0 22 20">
        <path d="M10.9932 3.13581C8.9938 0.7984 5.65975 0.169643 3.15469 2.31001C0.649644 4.45038 0.296968 8.02898 2.2642 10.5604C3.89982 12.6651 8.84977 17.1041 10.4721 18.5408C10.6536 18.7016 10.7444 18.7819 10.8502 18.8135C10.9426 18.8411 11.0437 18.8411 11.1361 18.8135C11.2419 18.7819 11.3327 18.7016 11.5142 18.5408C13.1365 17.1041 18.0865 12.6651 19.7221 10.5604C21.6893 8.02898 21.3797 4.42787 18.8316 2.31001C16.2835 0.192157 12.9925 0.7984 10.9932 3.13581Z" stroke-linecap="round" stroke-linejoin="round"/>
    </symbol>
    <symbol id="lotus-icon" viewBox="0 0 176 192">
        <path d="M109.741 57.3648L110.607 57.8645C110.607 57.8644 110.607 57.8644 110.607 57.8643C110.613 57.8546 110.619 57.8449 110.624 57.8352C121.643 38.7377 133.957 31.7063 144.781 31.7041C155.632 31.7019 165.18 38.7601 170.655 48.2499C176.131 57.7397 177.468 69.5445 172.042 78.9497C166.626 88.3365 154.376 95.5 132.318 95.5V96V96.5C154.376 96.5 166.626 103.663 172.042 113.05C177.468 122.456 176.131 134.26 170.655 143.75C165.18 153.24 155.632 160.298 144.781 160.296C133.952 160.294 121.63 153.255 110.607 134.136L110.174 134.385L109.741 134.635C120.764 153.754 120.684 167.957 115.263 177.346C109.831 186.754 98.9422 191.5 87.9878 191.5C77.0335 191.5 66.1477 186.754 60.722 177.347C55.3106 167.964 55.2361 153.776 66.2466 134.677C66.2546 134.663 66.2627 134.649 66.2708 134.635C66.2708 134.635 66.2709 134.635 66.2709 134.635L65.8378 134.385L65.4047 134.135C65.3967 134.149 65.3887 134.163 65.3807 134.177C54.364 153.265 42.0523 160.294 31.2308 160.296C20.3805 160.298 10.8324 153.24 5.35663 143.75C-0.119157 134.26 -1.45544 122.456 3.97038 113.05C9.3856 103.663 21.6365 96.5 43.6938 96.5V96V95.5C21.6366 95.5 9.38249 88.3366 3.96347 78.9496C-1.46611 69.5443 -0.134253 57.7395 5.33848 48.2498C10.8112 38.7601 20.3577 31.7019 31.2103 31.7041C42.0409 31.7063 54.3672 38.7435 65.4011 57.8583C65.4023 57.8603 65.4034 57.8623 65.4046 57.8643C65.4046 57.8644 65.4047 57.8644 65.4047 57.8645L65.8347 57.6163L65.8378 57.6146L66.2709 57.3648C55.2483 38.2456 55.3278 24.043 60.7492 14.6537C66.181 5.24612 77.0699 0.5 88.0243 0.5C98.9786 0.5 109.864 5.24611 115.29 14.6535C120.701 24.0358 120.776 38.2244 109.766 57.3226C109.757 57.3366 109.749 57.3506 109.741 57.3646C109.741 57.3647 109.741 57.3648 109.741 57.3648Z" stroke="#648371"/>
    </symbol>
    <symbol id="search" viewBox="0 0 20 20">
        <path d="M19 19L14.65 14.65M17 9C17 13.4183 13.4183 17 9 17C4.58172 17 1 13.4183 1 9C1 4.58172 4.58172 1 9 1C13.4183 1 17 4.58172 17 9Z" stroke-linecap="round" stroke-linejoin="round"/>
    </symbol>
    <symbol id="telegram" viewBox="0 0 24 24">
        <path fill-rule="evenodd" clip-rule="evenodd" d="M3.51562 3.51469C5.76375 1.26506 8.81812 0 12 0C15.1819 0 18.2362 1.26506 20.4844 3.51469C22.7344 5.76431 24 8.81869 24 12C24 15.1813 22.7344 18.2357 20.4844 20.4853C18.2362 22.7349 15.1819 24 12 24C8.81812 24 5.76375 22.7349 3.51562 20.4853C1.26562 18.2357 0 15.1813 0 12C0 8.81869 1.26562 5.76431 3.51562 3.51469ZM12.4293 8.85781C11.2631 9.34324 8.93059 10.3481 5.43184 11.8721C4.86372 12.098 4.56559 12.3191 4.53934 12.5351C4.49318 12.8999 4.95015 13.0439 5.57109 13.2394C5.65626 13.2662 5.74451 13.294 5.83497 13.3235C6.44809 13.5226 7.27309 13.7557 7.70059 13.7649C8.09059 13.7733 8.52372 13.613 9.00184 13.2841C12.2718 11.0778 13.9575 9.96256 14.0643 9.93856C14.1393 9.92168 14.2425 9.90031 14.3118 9.96275C14.3831 10.025 14.3756 10.1431 14.3681 10.1748C14.3239 10.3675 12.5355 12.0302 11.605 12.8954C11.3124 13.1674 11.1046 13.3606 11.0625 13.4045C10.9683 13.5023 10.8723 13.5949 10.78 13.6839C10.211 14.2324 9.78407 14.6439 10.8037 15.3157C11.2981 15.6413 11.6927 15.9101 12.0871 16.1788C12.5109 16.4674 12.9345 16.7559 13.4812 17.1146C13.6218 17.2067 13.7561 17.3024 13.8868 17.3956C14.3838 17.7499 14.8302 18.0682 15.3825 18.0174C15.7031 17.988 16.035 17.6865 16.2018 16.7872C16.5993 14.6619 17.3812 10.0572 17.5612 8.15975C17.5781 7.99362 17.5575 7.78081 17.5425 7.68743C17.5256 7.59406 17.4918 7.46093 17.3718 7.3625C17.2275 7.24568 17.0062 7.22112 16.9068 7.22273C16.455 7.23087 15.7631 7.47162 12.4293 8.85781Z"/>
    </symbol>
    <symbol id="user" viewBox="0 0 20 19">
        <path d="M1 18C3.33579 15.5226 6.50702 14 10 14C13.493 14 16.6642 15.5226 19 18M14.5 5.5C14.5 7.98528 12.4853 10 10 10C7.51472 10 5.5 7.98528 5.5 5.5C5.5 3.01472 7.51472 1 10 1C12.4853 1 14.5 3.01472 14.5 5.5Z" stroke-linecap="round" stroke-linejoin="round"/>
    </symbol>
    <symbol id="lotus-logo" viewBox="0 0 200 183">
        <path d="M100.419 84.7644C100.419 86.8197 100.454 88.8757 100.405 90.9294C100.38 92.0155 100.747 92.4821 101.883 92.442C103.755 92.3755 105.639 92.3399 107.504 92.4753C108.08 92.5171 108.613 93.1569 109.164 93.5225C108.625 93.9807 108.115 94.7812 107.54 94.8327C105.796 94.9889 104.027 94.8749 102.269 94.8259C101.165 94.7949 100.647 95.1164 100.661 96.3893C100.731 102.859 100.545 109.335 100.761 115.798C100.993 122.729 102.246 129.48 105.372 135.779C105.912 136.864 106.459 137.057 107.621 136.733C112.853 135.275 118.054 133.543 123.389 132.658C129.621 131.623 135.957 131.325 142.305 132.355C146.494 133.032 150.575 133.975 154.337 135.927C157.517 137.579 160.089 139.945 161.362 143.467C162.381 146.286 161.176 148.672 159.527 150.662C156.55 154.257 152.444 155.923 147.935 156.869C142.406 158.028 136.908 157.609 131.442 156.783C124.676 155.762 118.223 153.571 112.603 149.607C109.49 147.411 106.811 144.565 104.07 141.876C103.028 140.853 102.119 140.495 100.807 141.108C99.3257 141.799 97.8446 142.501 96.3207 143.087C95.1619 143.531 95.3439 144.287 95.8811 144.932C98.6845 148.287 100.73 152.011 101.153 156.418C101.334 158.299 101.312 160.294 100.875 162.114C100.391 164.127 98.7271 165.217 96.62 165.405C94.2822 165.612 92.6708 164.523 91.5013 162.546C90.9729 161.654 91.2364 161.059 91.9196 160.507C93.9066 158.9 94.3546 156.726 93.8785 154.404C93.4164 152.149 92.8016 149.899 91.9679 147.759C91.1605 145.686 90.0849 145.421 88.0888 146.297C85.2114 147.56 82.389 148.984 79.4335 150.026C70.8294 153.061 62.1984 156.068 52.8503 155.513C47.3408 155.187 41.9981 154.164 37.3847 150.933C32.8408 147.75 32.3075 143.225 36.5487 139.209C40.3025 135.653 44.9018 133.828 49.9834 133.17C54.328 132.608 58.682 131.549 63.0152 131.628C67.3917 131.71 71.7793 132.769 76.1059 133.672C82.251 134.955 87.6453 137.924 92.6528 141.665C93.0375 141.951 93.7842 142.057 94.2355 141.892C96.2831 141.149 98.2533 140.183 100.316 139.494C101.463 139.11 101.386 138.566 101.012 137.722C99.4025 134.091 97.5469 130.544 96.2792 126.797C95.2227 123.674 94.4663 120.337 94.2715 117.053C93.8695 110.28 93.8988 103.48 93.8275 96.6911C93.8111 95.1621 93.2278 94.7046 91.7726 94.7784C90.7517 94.8303 89.1097 95.3838 89.0467 93.6821C88.9827 91.9449 90.6519 92.3811 91.6658 92.4477C93.2958 92.5554 93.6719 91.9738 93.6079 90.3809C93.5052 87.828 93.6601 85.257 93.8633 82.7062C93.9043 82.1933 94.5601 81.4802 95.0822 81.3023C96.5897 80.7889 97.3186 79.7441 97.9047 78.3483C98.1713 77.7135 99.0045 77.3198 99.5811 76.8164C99.8742 77.4686 100.382 78.109 100.42 78.7754C100.532 80.7664 100.46 82.7676 100.46 84.7649C100.447 84.7649 100.433 84.7649 100.42 84.7649L100.419 84.7644ZM140.824 155.562C142.455 155.214 145.872 154.972 148.889 153.742C155.591 151.004 156.8 143.182 150.695 138.449C146.874 135.487 142.41 134.415 137.698 134.077C127.731 133.362 118.209 135.463 108.832 138.571C107.695 138.949 107.697 139.451 108.266 140.3C111.724 145.468 116.252 149.355 121.889 151.965C127.365 154.499 133.205 155.119 140.823 155.562H140.824ZM63.0535 134.311C61.0692 134.311 59.0592 134.107 57.1048 134.351C52.3585 134.942 47.776 136.158 43.8728 139.128C42.0244 140.534 40.7186 142.367 40.5608 144.78C40.3357 148.224 42.5606 150.123 45.2332 151.425C51.0205 154.247 57.1886 153.688 63.2337 152.729C67.1132 152.113 70.9394 150.929 74.6674 149.643C79.0974 148.117 83.3991 146.211 87.7521 144.459C88.7806 144.045 88.9446 143.4 88.0209 142.72C85.7565 141.048 83.6079 139.134 81.1403 137.84C75.5073 134.888 69.3703 133.953 63.0528 134.311H63.0535Z"/>
        <path d="M137.032 44.927C138.325 46.4069 139.694 47.8389 140.906 49.3939C142.361 51.2603 142.268 51.5508 140.646 53.2615C137.378 56.7081 133.761 59.694 129.371 61.575C124.788 63.5385 120.076 63.7563 115.277 62.353C109.524 60.6711 105.305 56.7375 101.202 52.6684C100.247 51.7222 99.7873 51.5091 98.6559 52.5093C95.572 55.2349 92.4716 57.9985 89.0777 60.2998C84.9128 63.1243 80.2069 63.7839 75.1886 62.8259C68.1267 61.4774 63.1529 57.0067 58.4435 52.0631C58.2183 51.8267 58.1813 51.0813 58.3795 50.8212C59.5322 49.3103 60.7055 47.7988 62.0244 46.4368C62.9806 45.4495 63.2681 44.7928 62.1968 43.6163C59.6433 40.8134 57.9697 37.4806 56.9927 33.802C56.488 31.9018 55.995 29.9982 55.4476 28.1103C55.0686 26.8047 55.3039 25.8377 56.5857 25.1619C59.4273 23.6638 62.4237 22.5263 65.5952 22.2408C68.6012 21.9707 71.6504 22.1512 74.6795 22.1946C75.8945 22.2121 76.6367 21.9988 76.9117 20.5482C77.2335 18.8535 77.9936 17.2465 78.508 15.5844C78.9346 14.2044 79.9267 14.1012 81.0613 14.3844C82.4157 14.7229 83.7592 15.1133 85.0886 15.541C86.1306 15.8762 86.7775 15.6442 87.2098 14.5642C89.0952 9.85547 91.8973 5.76828 95.664 2.37701C96.5843 1.54872 97.5663 0.748013 98.6403 0.154021C99.1041 -0.102134 100.017 -0.0215223 100.481 0.282639C104.14 2.68153 107.207 5.70917 109.415 9.51584C110.496 11.3788 111.272 13.4207 112.36 15.2786C112.576 15.6481 113.629 15.7542 114.22 15.6267C115.842 15.2781 117.45 14.8172 119.01 14.2524C120.087 13.8624 120.792 14.1435 121.181 15.1133C121.913 16.9402 122.684 18.7698 123.183 20.6668C123.511 21.913 123.978 22.373 125.263 22.1885C129.165 21.6282 133.096 21.4707 136.917 22.5693C139.286 23.2497 141.595 24.2123 143.813 25.2926C144.331 25.5454 144.664 26.8222 144.583 27.5731C144.05 32.5049 142.468 37.1031 139.761 41.2693C138.932 42.5454 137.942 43.7162 137.032 44.9275V44.927ZM75.7832 23.8426C73.9085 23.6767 72.2203 23.446 70.5264 23.394C66.398 23.2667 62.3893 23.8601 58.6315 25.6978C57.5863 26.2089 56.749 26.7676 56.9861 28.2513C57.8647 33.7608 59.8729 38.7332 63.5133 43.0008C64.2371 43.8488 64.7643 43.4026 65.5442 43.037C67.9258 41.9198 70.3344 40.809 72.8317 40.0077C74.8153 39.3707 76.9449 39.1925 79.0565 38.8015C76.7085 34.1242 75.5592 29.2528 75.7827 23.8426H75.7832ZM120.736 38.8629C121.115 39.0322 121.272 39.1681 121.422 39.1597C126.002 38.8991 130.182 40.2555 133.927 42.7312C135.572 43.8183 136.333 43.2016 137.159 42.0145C140.088 37.8073 142.131 33.2571 142.653 28.0681C142.767 26.9272 142.447 26.3952 141.506 25.9443C135.88 23.2502 130.006 22.8586 123.724 23.8985C124.308 29.2234 123.055 34.1705 120.735 38.8635L120.736 38.8629ZM111.295 16.4481C110.968 15.7859 110.751 15.3993 110.582 14.992C108.467 9.87518 105.391 5.51159 100.861 2.24159C99.8654 1.52274 98.9508 1.50466 98.0615 2.20648C93.6597 5.68212 90.4055 10.0203 88.5736 15.3592C88.4477 15.7266 88.8453 16.5085 89.2242 16.7749C90.5588 17.7121 92.1185 18.3535 93.3588 19.391C95.6747 21.328 97.8256 23.4635 100.226 25.6837C102.694 21.5023 106.876 18.8071 111.295 16.4481ZM95.654 53.6908C95.6091 53.5441 95.5636 53.3974 95.5187 53.2507C94.8948 53.341 94.2515 53.363 93.6519 53.5373C92.6322 53.8336 91.6654 54.3633 90.6324 54.5546C81.8636 56.1773 74.031 53.8866 66.8433 48.7992C65.7879 48.052 65.0809 46.0972 63.551 46.8368C62.3208 47.4315 61.4984 48.8855 60.5085 49.9711C59.5641 51.0062 59.8729 51.9524 60.8178 52.7526C63.0665 54.6573 65.2034 56.7414 67.6428 58.3624C71.7369 61.0824 76.3857 62.0325 81.2579 61.4903C87.1053 60.8399 91.2893 57.0776 95.6533 53.6903L95.654 53.6908ZM104.63 53.2615C104.555 53.3951 104.48 53.5289 104.405 53.6631C104.742 54.084 105.015 54.5879 105.429 54.91C106.403 55.6672 107.471 56.302 108.453 57.049C110.82 58.8499 113.355 60.2932 116.298 60.8929C125.748 62.8191 133.035 58.899 139.338 52.2944C140.562 51.012 139.441 50.1703 138.761 49.3892C137.813 48.3003 137.139 46.6468 135.205 47.0332C135.005 47.0733 134.835 47.2877 134.662 47.4344C130.539 50.9272 125.898 53.346 120.601 54.5242C116.652 55.4021 112.731 55.3231 108.812 54.5071C107.393 54.2116 106.022 53.6835 104.629 53.2615H104.63ZM96.0964 50.7603C95.7287 50.713 95.3602 50.67 94.9937 50.6159C94.6012 50.5584 94.1829 50.56 93.823 50.4167C89.0019 48.4984 84.4761 46.1458 81.2125 41.8809C80.8912 41.4612 80.213 41.1592 79.6674 41.0966C75.3437 40.6001 71.3668 41.8081 67.567 43.753C65.4711 44.8259 65.3561 45.4749 67.2442 46.8402C71.5734 49.9705 76.1055 52.5889 81.6228 53.1289C86.664 53.6219 91.5244 53.4103 96.0964 50.7598V50.7603ZM103.514 50.7857C110.507 56.079 129.579 52.3114 133.919 45.0246C129.781 41.926 125.015 41.0074 120.004 41.008C119.539 41.008 118.962 41.4374 118.626 41.83C114.669 46.4492 109.902 49.7047 103.514 50.7857ZM97.1092 38.9967C97.2691 38.3816 97.3545 38.1813 97.3691 37.9766C97.5948 34.8949 97.3321 31.7635 98.5117 28.7794C98.7132 28.2694 98.3916 27.439 98.1025 26.8629C96.6561 23.9798 94.1818 22.062 91.6244 20.2894C90.4481 19.474 89.0552 18.9753 87.7606 18.3333C87.5271 18.4845 87.2934 18.6351 87.0599 18.7863C87.0599 20.9849 86.9499 23.1922 87.1166 25.3784C87.1789 26.2005 87.7387 27.1049 88.3198 27.7447C90.2814 29.9061 92.4773 31.8629 94.339 34.1027C95.4422 35.4303 96.0857 37.1438 97.1092 38.9973V38.9967ZM102.951 37.5031C103.168 37.4055 103.313 37.3892 103.357 37.3136C105.515 33.5888 108.261 30.3869 111.617 27.6906C112.082 27.3164 112.473 26.5261 112.464 25.9348C112.433 23.8906 112.223 21.8476 112.055 19.807C111.954 18.5848 111.274 18.3259 110.321 18.9622C108.441 20.2154 106.462 21.3715 104.788 22.8654C102.247 25.133 100.01 27.6781 102.008 31.5063C102.107 31.6958 102.074 31.9537 102.109 32.1789C102.387 33.9426 102.667 35.7063 102.951 37.5026V37.5031ZM109.95 41.3019C111.662 40.7508 112.903 40.0912 114.188 39.9875C117.548 39.7166 119.496 38.0737 120.545 34.8418C121.625 31.5181 122.214 28.2046 122.035 24.3171C119.986 25.2131 118.232 26.0199 116.448 26.749C114.583 27.5106 114.152 28.9426 113.795 30.8417C113.291 33.5233 112.142 36.0864 111.221 38.6823C110.948 39.4487 110.512 40.1566 109.95 41.3014V41.3019ZM89.0552 40.968C88.8688 40.3106 88.8424 40.0765 88.7413 39.8813C86.928 36.3816 85.6663 32.712 85.2795 28.7615C85.2492 28.4518 85.0747 28.0211 84.8344 27.8875C82.6116 26.6524 80.3595 25.4703 77.942 24.1806C77.7387 25.0144 77.6028 25.3322 77.5921 25.6532C77.4429 30.1549 78.7157 34.2946 80.903 38.1627C81.1895 38.6689 81.8868 39.0524 82.4745 39.2482C83.4784 39.5828 84.5542 39.6923 85.5845 39.9547C86.6449 40.225 87.6882 40.5652 89.0552 40.968ZM98.1221 47.5014C98.313 41.6715 90.8952 30.6239 87.4551 29.922C87.3051 34.3492 91.4301 43.8506 98.1221 47.5014ZM101.747 47.1122C106.861 45.3513 112.782 33.2988 111.833 29.4362C107.119 34.6799 102.72 39.7222 101.747 47.1122ZM114.551 25.7249C115.973 25.0422 117.115 24.5073 118.245 23.9488C119.39 23.3828 121.147 23.0404 121.497 22.1484C121.907 21.108 121.119 19.5677 120.777 18.2643C120.621 17.6709 120.358 17.0711 120.002 16.5767C119.785 16.2772 119.245 15.9489 118.942 16.0216C117.061 16.473 115.206 17.0344 113.542 17.5032C113.892 20.3582 114.193 22.8074 114.551 25.7243V25.7249ZM80.665 15.7734C80.3488 16.0786 79.7217 16.4234 79.5101 16.9397C78.957 18.2914 78.6909 19.764 78.1098 21.1007C77.6422 22.1754 77.9695 22.6363 78.9189 23.0297C80.5757 23.7163 82.2028 24.4756 83.854 25.1764C84.7624 25.5619 85.1975 25.3 85.2481 24.2268C85.3328 22.414 85.3716 20.5658 85.7775 18.8139C86.0269 17.7368 85.7117 17.2533 84.9089 16.9735C83.6317 16.5277 82.3039 16.2276 80.665 15.7734ZM115.93 41.552C111.807 41.5599 105.233 45.5313 103.931 48.8013C107.65 49.0152 115.217 44.4435 115.93 41.552ZM96.1356 48.4544C94.0611 46.7082 92.4132 44.9356 90.4196 43.7512C88.4281 42.568 86.0909 41.974 83.5032 40.9657C84.8258 44.4824 92.4385 49.2302 96.1351 48.4544H96.1356ZM99.6941 45.0235C101.71 41.0497 101.563 32.3453 99.5538 30.9669C97.9116 35.59 98.4903 40.1261 99.6941 45.0235Z"/>
        <path d="M194.455 65.792C195.657 68.7614 195.329 79.2746 193.881 80.653C193.468 79.8061 192.988 79.0807 192.744 78.2817C191.418 73.926 189.152 70.2474 185.334 67.6628C182.116 65.4849 178.619 64.8949 174.742 65.2711C170.758 65.6576 167.717 67.5612 165.129 70.3083C161.569 74.0856 162.09 80.9859 166.792 84.1178C169.993 86.2489 173.715 86.9 177.23 88.1598C181.227 89.5912 185.125 91.3001 189.033 92.9691C192.405 94.4094 195.311 96.4542 197.407 99.5968C198.758 101.625 199.655 103.765 199.89 106.179C200.5 112.465 198.591 117.909 193.961 122.137C190.578 125.226 186.451 127.026 181.876 127.766C176.956 128.561 172.416 127.331 167.886 125.59C163.82 124.026 160.368 121.77 158.013 118.011C156.065 114.899 154.977 111.597 155.899 107.888C156.382 105.945 158.489 103.951 160.204 103.736C162.519 103.446 164.678 104.58 165.817 106.697C166.295 107.584 166.382 108.412 165.475 109.122C163.288 110.833 162.585 113.897 163.525 116.515C165.824 122.918 171.696 125.547 177.327 125.717C182.329 125.867 186.747 124.698 190.762 121.681C194.849 118.609 196.653 112.931 194.32 107.638C192.858 104.327 190.077 102.662 187.184 100.971C182.173 98.0397 176.553 96.7786 171.147 94.9304C167.788 93.7821 164.523 92.4195 161.738 90.2146C158.935 87.9945 157.639 84.8287 157.576 81.3031C157.514 77.8579 157.911 74.4874 159.746 71.3673C161.541 68.3161 164.065 66.2004 167.127 64.6686C173.55 61.4536 179.933 61.377 186.157 65.2232C187.676 66.1615 189.074 67.2966 190.576 68.2665C192.505 69.5134 193.124 69.2414 193.792 67.0281C193.899 66.6743 194.143 66.3623 194.453 65.7925L194.455 65.792Z"/>
        <path d="M121.795 98.7125C121.795 104.699 121.602 110.695 121.876 116.668C122.013 119.668 122.995 122.605 126.176 124.072C128.675 125.225 131.153 124.866 133.655 124.181C135.533 123.667 137.37 122.993 138.341 121.165C139.006 119.913 139.797 118.511 139.816 117.167C139.935 108.78 139.858 100.391 139.833 92.0025C139.825 89.3225 139.207 88.5562 136.608 87.5819C136.251 87.4476 135.85 86.8479 135.853 86.467C135.858 85.9812 136.127 85.2404 136.5 85.0566C139.264 83.695 142.053 82.3743 144.899 81.199C145.878 80.7951 146.74 81.0552 146.729 82.5515C146.679 90.312 146.706 98.0733 146.704 105.834C146.703 109.971 146.699 114.108 146.697 118.245C146.697 119.127 146.651 120.012 146.718 120.89C146.821 122.265 147.559 123.114 148.865 123.644C149.412 123.866 149.753 124.607 150.188 125.114C149.61 125.409 149.045 125.936 148.455 125.961C146.187 126.061 143.91 126.07 141.643 125.956C141.042 125.925 140.125 125.461 139.945 124.974C139.355 123.375 138.617 123.863 137.627 124.492C131.825 128.182 125.912 127.87 120.051 124.721C117.095 123.134 115.91 120.213 115.728 117.079C115.368 110.878 115.294 104.66 115.121 98.4495C115.054 96.0556 115.047 93.66 115.001 91.2661C114.969 89.6357 114.214 88.5163 112.763 87.7258C112.159 87.3969 111.366 86.5939 111.421 86.0889C111.482 85.5225 112.322 84.8794 112.966 84.5679C115.103 83.5343 117.303 82.6355 119.478 81.683C121.326 80.8746 121.571 81.0439 121.571 83.1349C121.571 88.3271 121.571 93.5201 121.571 98.7125C121.646 98.7125 121.72 98.7125 121.795 98.713V98.7125Z"/>
        <path d="M48.2217 103.862C48.8939 97.0011 50.2773 91.2068 54.2955 86.2705C60.3372 78.8488 71.9575 78.2278 78.3923 85.2887C83.0247 90.3717 84.8336 96.6355 84.9318 103.452C85.0229 109.781 83.6317 115.803 80.0463 120.969C77.545 124.572 73.7687 126.826 69.3254 127.727C61.4736 129.321 53.1709 123.722 50.8504 116.352C50.363 114.804 49.5186 113.34 49.2295 111.765C48.7097 108.928 48.4851 106.037 48.2217 103.862ZM77.5135 104.243C77.6117 97.9506 76.4596 92.1517 73.3005 86.7784C70.2832 81.6463 63.5862 81.3172 60.2154 86.2209C57.2498 90.5352 56.1735 95.393 55.7233 100.513C55.1427 107.117 55.9208 113.49 58.8078 119.465C60.2081 122.364 62.1967 124.854 65.7641 125.328C69.893 125.876 72.2746 123.366 73.9933 120.239C76.7354 115.25 77.6589 109.765 77.5135 104.243Z"/>
        <path d="M20.7529 126.002C14.6723 126.002 8.59136 126.009 2.51079 125.987C1.90794 125.986 1.22915 125.935 0.720412 125.658C-0.226825 125.142 -0.270496 124.49 0.771571 123.925C3.68708 122.344 3.96836 121.469 3.87407 118.12C3.74608 113.576 3.94876 109.023 3.95713 104.474C3.96551 100.103 3.88975 95.7319 3.88244 91.3612C3.87567 87.427 3.9336 83.4921 3.92237 79.558C3.91221 75.969 3.94537 72.3751 3.76515 68.7929C3.68084 67.119 2.67656 65.8765 0.968005 65.3196C0.617024 65.2051 0.374601 64.7577 0.0815533 64.4637C0.378523 64.1794 0.630037 63.7829 0.984226 63.6372C1.48957 63.4296 2.06907 63.323 2.61809 63.3178C5.78191 63.2897 8.94786 63.2553 12.1094 63.3443C12.7646 63.363 13.4058 63.8928 14.0536 64.1868C13.5915 64.6697 13.217 65.3608 12.6523 65.6012C10.0033 66.7268 10.4575 69.1908 10.4154 71.1873C10.2616 78.434 10.3543 85.6864 10.3559 92.9363C10.3571 100.016 10.3386 107.096 10.3757 114.175C10.3874 116.415 10.553 118.654 10.6429 120.893C10.7103 122.579 11.7855 123.824 13.2115 123.81C19.0163 123.754 24.9165 124.827 30.5983 122.883C33.976 121.728 36.6136 119.477 38.1357 116.228C39.2901 113.764 40.0149 111.099 41.0003 108.551C41.1855 108.072 41.6992 107.721 42.0614 107.312C42.273 107.771 42.6997 108.249 42.6632 108.687C42.3443 112.52 41.9423 116.347 41.5662 120.176C41.4224 121.64 41.2523 123.102 41.1473 124.569C41.0625 125.756 40.4332 126.03 39.335 126.023C33.1411 125.98 26.9466 126.002 20.7523 126.002H20.7529Z"/>
        <path d="M76.0507 179.95C76.0507 180.448 75.9309 180.871 75.6915 181.22C75.4519 181.562 75.1083 181.825 74.6603 182.012C74.22 182.198 73.6986 182.291 73.0961 182.291C72.787 182.291 72.4897 182.275 72.204 182.245C71.9259 182.214 71.671 182.171 71.4393 182.116C71.2075 182.055 71.0027 181.981 70.8252 181.895V180.894C71.1033 181.018 71.4469 181.13 71.8564 181.231C72.2735 181.333 72.7022 181.383 73.1425 181.383C73.5518 181.383 73.8956 181.329 74.1737 181.22C74.4518 181.111 74.6603 180.957 74.7993 180.754C74.9384 180.552 75.0079 180.315 75.0079 180.043C75.0079 179.773 74.95 179.543 74.8341 179.357C74.7182 179.171 74.5173 179.001 74.2316 178.845C73.9535 178.682 73.5633 178.512 73.0614 178.332C72.7059 178.2 72.3931 178.06 72.1229 177.913C71.8601 177.757 71.64 177.584 71.4625 177.388C71.2847 177.195 71.1496 176.975 71.0569 176.726C70.9719 176.477 70.9295 176.19 70.9295 175.864C70.9295 175.422 71.0414 175.045 71.2655 174.734C71.4894 174.417 71.7985 174.171 72.1924 174.001C72.594 173.831 73.0535 173.745 73.5712 173.745C74.0268 173.745 74.4439 173.788 74.8225 173.872C75.201 173.958 75.5446 174.071 75.8537 174.211L75.5293 175.106C75.2434 174.983 74.9305 174.879 74.5908 174.793C74.2585 174.707 73.9109 174.664 73.548 174.664C73.2004 174.664 72.9108 174.716 72.679 174.816C72.4473 174.916 72.2735 175.06 72.1576 175.246C72.0418 175.425 71.9838 175.635 71.9838 175.875C71.9838 176.156 72.0418 176.387 72.1576 176.573C72.2735 176.76 72.4626 176.928 72.7254 177.075C72.9879 177.222 73.3432 177.381 73.7913 177.551C74.2779 177.731 74.6872 177.924 75.0195 178.134C75.3592 178.336 75.6141 178.581 75.7842 178.868C75.9617 179.155 76.0507 179.516 76.0507 179.95ZM88.4692 182.175L87.4728 179.601H84.1938L83.209 182.175H82.1546L85.3872 173.826H86.3257L89.5468 182.175H88.4692ZM86.233 176.154C86.2099 176.093 86.1714 175.98 86.1172 175.817C86.0632 175.654 86.0092 175.488 85.955 175.316C85.9086 175.139 85.8701 175.002 85.8391 174.909C85.8006 175.065 85.758 175.223 85.7116 175.386C85.6731 175.542 85.6305 175.685 85.5842 175.817C85.5457 175.95 85.5109 176.061 85.4799 176.154L84.5414 178.669H87.16L86.233 176.154ZM96.24 182.175V173.861H97.2828V181.243H100.898V182.175H96.24ZM114.87 178.006C114.87 178.651 114.788 179.237 114.626 179.764C114.464 180.285 114.221 180.735 113.896 181.114C113.58 181.496 113.182 181.786 112.703 181.988C112.232 182.191 111.683 182.291 111.058 182.291C110.409 182.291 109.845 182.191 109.366 181.988C108.887 181.779 108.489 181.487 108.173 181.114C107.856 180.735 107.62 180.281 107.466 179.753C107.311 179.225 107.234 178.639 107.234 177.994C107.234 177.141 107.373 176.396 107.651 175.76C107.929 175.122 108.35 174.626 108.914 174.268C109.486 173.912 110.204 173.732 111.069 173.732C111.896 173.732 112.591 173.912 113.155 174.268C113.719 174.617 114.144 175.115 114.429 175.76C114.723 176.396 114.87 177.145 114.87 178.006ZM108.335 178.006C108.335 178.705 108.431 179.307 108.624 179.81C108.818 180.315 109.115 180.704 109.517 180.975C109.926 181.247 110.44 181.383 111.058 181.383C111.683 181.383 112.193 181.247 112.587 180.975C112.989 180.704 113.286 180.315 113.479 179.81C113.672 179.307 113.769 178.705 113.769 178.006C113.769 176.959 113.553 176.14 113.12 175.549C112.688 174.952 112.004 174.653 111.069 174.653C110.444 174.653 109.926 174.789 109.517 175.06C109.115 175.325 108.818 175.708 108.624 176.213C108.431 176.71 108.335 177.308 108.335 178.006ZM128.823 182.175H127.606L123.18 175.269H123.134C123.141 175.409 123.149 175.565 123.157 175.735C123.172 175.907 123.184 176.093 123.192 176.296C123.199 176.489 123.207 176.69 123.215 176.899C123.223 177.109 123.226 177.319 123.226 177.528V182.175H122.265V173.861H123.47L127.884 180.742H127.931C127.923 180.649 127.915 180.521 127.907 180.358C127.9 180.188 127.892 180.002 127.884 179.8C127.876 179.59 127.869 179.377 127.861 179.158C127.853 178.942 127.849 178.739 127.849 178.553V173.861H128.823V182.175Z"/>
    </symbol>
    <symbol id="logo-min" viewBox="0 0 58 83">
            <path d="M30.2334 46.5184C30.2334 47.4479 30.2495 48.3778 30.2277 49.3066C30.2156 49.7978 30.3819 50.0089 30.8961 49.9907C31.7444 49.9606 32.5968 49.9445 33.4419 50.0058C33.7026 50.0247 33.944 50.314 34.1934 50.4794C33.9496 50.6865 33.7188 51.0487 33.458 51.0718C32.6686 51.1426 31.8671 51.091 31.0712 51.0688C30.5716 51.0547 30.3367 51.2002 30.3431 51.7758C30.3746 54.7019 30.2907 57.6307 30.3883 60.554C30.4933 63.6882 31.0607 66.742 32.4765 69.5904C32.7211 70.0813 32.9689 70.1688 33.4952 70.0222C35.8642 69.3627 38.2188 68.5793 40.6346 68.1783C43.4565 67.7109 46.3261 67.5764 49.2004 68.0414C51.0973 68.3485 52.9457 68.7746 54.6489 69.6568C56.0889 70.4038 57.2536 71.4748 57.8299 73.0675C58.2916 74.3426 57.746 75.4217 56.9994 76.3218C55.6514 77.9469 53.7916 78.7012 51.7495 79.1281C49.2464 79.6523 46.7571 79.4635 44.2815 79.09C41.2174 78.6274 38.2954 77.6375 35.7512 75.8438C34.3411 74.8506 33.1279 73.5641 31.8873 72.3481C31.4151 71.8847 31.0034 71.7227 30.4093 71.9997C29.7386 72.3133 29.0678 72.6308 28.3777 72.8957C27.853 73.0967 27.9353 73.4385 28.1791 73.7294C29.448 75.2476 30.3746 76.9318 30.5659 78.9248C30.6483 79.7754 30.6378 80.6779 30.44 81.501C30.2204 82.4116 29.4674 82.9041 28.5133 82.9892C27.4551 83.0832 26.7254 82.5906 26.1951 81.6962C25.9561 81.292 26.0756 81.0238 26.3848 80.7735C27.2848 80.0476 27.4874 79.0641 27.2718 78.0134C27.0628 76.9942 26.7843 75.9759 26.4065 75.0086C26.0409 74.0712 25.5542 73.9513 24.6501 74.3475C23.3473 74.9178 22.0688 75.5619 20.7305 76.0334C16.835 77.4066 12.9259 78.7668 8.69305 78.5156C6.19806 78.3682 3.77895 77.9056 1.68998 76.4441C-0.367514 75.0045 -0.608855 72.9581 1.31142 71.1418C3.01133 69.5337 5.09385 68.7082 7.39511 68.4108C9.3622 68.1565 11.3341 67.6768 13.2964 67.7133C15.278 67.7498 17.2645 68.2294 19.2243 68.6377C22.0066 69.2177 24.4491 70.5609 26.7165 72.2525C26.8909 72.3821 27.2291 72.4299 27.4333 72.3554C28.3607 72.0192 29.2527 71.5825 30.1874 71.2706C30.7064 71.0964 30.6717 70.8501 30.5022 70.4694C29.7733 68.8272 28.933 67.2232 28.3591 65.5284C27.8804 64.1156 27.5382 62.6065 27.4502 61.1212C27.2678 58.0581 27.2807 54.9828 27.2484 51.9124C27.2412 51.2209 26.9772 51.0139 26.3186 51.0474C25.856 51.0709 25.1126 51.3212 25.0836 50.5516C25.0553 49.7659 25.8108 49.9632 26.2701 49.9932C27.0079 50.042 27.1782 49.7789 27.1491 49.0586C27.1031 47.904 27.1734 46.7411 27.2654 45.5875C27.2839 45.3555 27.5802 45.033 27.8167 44.9526C28.4996 44.7205 28.8297 44.2479 29.0952 43.6166C29.2155 43.3295 29.5933 43.1514 29.854 42.9238C29.9872 43.2188 30.2172 43.5084 30.2342 43.8097C30.285 44.7103 30.2519 45.6153 30.2519 46.5186C30.2463 46.5186 30.2398 46.5186 30.2342 46.5186L30.2334 46.5184ZM48.5296 78.5375C49.2682 78.3804 50.8164 78.271 52.1821 77.7144C55.2171 76.4765 55.7644 72.9387 52.9998 70.7975C51.27 69.4575 49.248 68.9739 47.1147 68.8208C42.6009 68.4967 38.2898 69.4478 34.0432 70.8534C33.5283 71.0235 33.5291 71.2504 33.7874 71.6352C35.3525 73.9724 37.4035 75.7296 39.9558 76.9108C42.4355 78.0571 45.0798 78.3366 48.5296 78.5375ZM13.3133 68.9269C12.4149 68.9269 11.5044 68.8345 10.6198 68.9447C8.47027 69.2121 6.39582 69.7621 4.62811 71.1053C3.79106 71.7413 3.19941 72.5693 3.12837 73.6605C3.02667 75.2184 4.03402 76.0771 5.24398 76.6669C7.86488 77.9429 10.6577 77.6901 13.3949 77.2567C15.1521 76.978 16.8843 76.4417 18.5729 75.8608C20.5787 75.1698 22.5264 74.3086 24.4976 73.5163C24.9633 73.3292 25.0376 73.0375 24.6195 72.7288C23.5943 71.973 22.6209 71.1078 21.5037 70.5229C18.9531 69.1878 16.174 68.7649 13.3133 68.9261V68.9269Z"/>
            <path d="M42.6724 27.7758C43.1495 28.3198 43.6539 28.8462 44.1011 29.4177C44.6379 30.1038 44.6032 30.2106 44.0051 30.8394C42.7999 32.1064 41.4665 33.2039 39.8473 33.8954C38.1579 34.6171 36.42 34.6971 34.6507 34.1813C32.5294 33.5631 30.9732 32.1172 29.4605 30.6214C29.1086 30.2736 28.9391 30.1953 28.5218 30.563C27.3845 31.5649 26.2415 32.5807 24.9896 33.4267C23.4543 34.4649 21.7189 34.7073 19.8681 34.3552C17.2641 33.8595 15.4302 32.2161 13.694 30.3989C13.6108 30.312 13.5971 30.0381 13.6697 29.9425C14.0951 29.387 14.5278 28.8314 15.0145 28.3308C15.3664 27.9678 15.473 27.7265 15.0775 27.2941C14.1363 26.2637 13.5188 25.0386 13.1588 23.6864C12.9724 22.9879 12.7907 22.2882 12.5889 21.5943C12.4493 21.1143 12.5357 20.7589 13.0087 20.5105C14.0564 19.9598 15.1614 19.5417 16.331 19.4368C17.4393 19.3375 18.5637 19.4038 19.6808 19.4198C20.1288 19.4262 20.4024 19.3478 20.5033 18.8146C20.622 18.1916 20.9029 17.601 21.0925 16.9899C21.2499 16.4826 21.6156 16.4447 22.0337 16.5488C22.5334 16.6733 23.029 16.8168 23.5189 16.974C23.9031 17.0972 24.1413 17.0119 24.3011 16.615C24.9961 14.8841 26.0292 13.3818 27.4184 12.1351C27.7574 11.8307 28.1198 11.5364 28.5161 11.318C28.6865 11.2238 29.0239 11.2535 29.195 11.3653C30.5438 12.2471 31.6746 13.36 32.4891 14.7592C32.8878 15.444 33.1736 16.1946 33.5747 16.8776C33.6546 17.0134 34.0429 17.0524 34.2608 17.0055C34.8589 16.8773 35.4514 16.7079 36.0269 16.5003C36.4241 16.357 36.684 16.4603 36.8277 16.8168C37.0972 17.4883 37.3814 18.1609 37.5654 18.8581C37.6865 19.3163 37.8592 19.4853 38.333 19.4175C39.7714 19.2116 41.2211 19.1537 42.6304 19.5575C43.503 19.8076 44.3554 20.1614 45.173 20.5586C45.3643 20.6515 45.487 21.1208 45.4564 21.3968C45.2602 23.2097 44.6774 24.8999 43.679 26.4313C43.373 26.9004 43.0082 27.3308 42.6724 27.776V27.7758ZM20.0876 20.0255C19.3967 19.9646 18.7735 19.8798 18.1488 19.8607C16.6272 19.8138 15.1485 20.032 13.7634 20.7075C13.3776 20.8954 13.0692 21.1007 13.1564 21.6461C13.4801 23.6713 14.221 25.499 15.5634 27.0678C15.8298 27.3795 16.0243 27.2155 16.3116 27.0811C17.1898 26.6704 18.0786 26.2621 18.9995 25.9675C19.7308 25.7334 20.5162 25.6679 21.2943 25.5242C20.429 23.8049 20.0053 22.0142 20.0876 20.0255ZM36.6638 25.5468C36.8034 25.609 36.8607 25.659 36.9164 25.6559C38.605 25.56 40.1468 26.0586 41.527 26.9686C42.134 27.3683 42.4149 27.1416 42.7192 26.7053C43.7992 25.1588 44.5523 23.4861 44.7452 21.5787C44.7872 21.1594 44.6694 20.9638 44.3223 20.7981C42.2478 19.8078 40.0814 19.6639 37.7656 20.0461C37.9803 22.0035 37.5186 23.8219 36.663 25.547L36.6638 25.5468ZM33.1824 17.3074C33.0614 17.064 32.9815 16.9219 32.9193 16.7722C32.1396 14.8914 31.0047 13.2874 29.3346 12.0853C28.9674 11.8211 28.63 11.8145 28.3023 12.0724C26.679 13.35 25.4795 14.9447 24.8039 16.9072C24.7571 17.0422 24.904 17.3296 25.0437 17.4276C25.5361 17.7721 26.1108 18.0078 26.5684 18.3892C27.4224 19.1012 28.2151 19.8862 29.1006 20.7023C30.0102 19.1653 31.5527 18.1746 33.1824 17.3074ZM27.4144 30.9973C27.3982 30.9433 27.3813 30.8894 27.3651 30.8355C27.1351 30.8687 26.8978 30.8768 26.6766 30.9409C26.3005 31.0498 25.9437 31.2444 25.5627 31.3148C22.3299 31.9113 19.4411 31.0692 16.7911 29.1992C16.402 28.9246 16.1413 28.2059 15.5771 28.4778C15.1235 28.6965 14.82 29.2309 14.4551 29.6299C14.1072 30.0105 14.2211 30.3583 14.5689 30.6524C15.3987 31.3525 16.1865 32.1187 17.0857 32.7145C18.5951 33.7143 20.3096 34.0635 22.1064 33.8642C24.2623 33.6251 25.8048 32.2423 27.4144 30.997V30.9973ZM30.7246 30.8394C30.6963 30.8886 30.6689 30.9377 30.6414 30.9871C30.7657 31.1418 30.8667 31.327 31.0192 31.4454C31.3784 31.7238 31.7723 31.9571 32.1339 32.2317C33.0073 32.8936 33.942 33.4242 35.0268 33.6446C38.5114 34.3527 41.1985 32.9117 43.5232 30.484C43.9744 30.0125 43.5603 29.7032 43.3101 29.4161C42.9606 29.0158 42.712 28.408 41.9984 28.55C41.925 28.5648 41.862 28.6436 41.7983 28.6974C40.2783 29.9814 38.5671 30.8706 36.6137 31.3036C35.1576 31.6262 33.712 31.5972 32.2663 31.2973C31.7432 31.1887 31.2379 30.9946 30.7246 30.8394ZM27.5782 29.92C27.4426 29.9026 27.3062 29.8869 27.1714 29.867C27.0261 29.8458 26.8719 29.8465 26.7396 29.7937C24.9622 29.0887 23.2929 28.2238 22.0894 26.6562C21.9707 26.5018 21.7213 26.3908 21.5195 26.3678C19.9254 26.1853 18.4587 26.6293 17.0583 27.3443C16.285 27.7387 16.243 27.9772 16.9388 28.4791C18.5354 29.6298 20.2063 30.5922 22.2412 30.7907C24.1001 30.972 25.892 30.8942 27.5782 29.9199V29.92ZM30.3129 29.9294C32.8919 31.8751 39.924 30.4902 41.5246 27.8117C39.999 26.6727 38.241 26.3351 36.3934 26.3353C36.2223 26.3353 36.0092 26.4931 35.8857 26.6374C34.4263 28.3354 32.6683 29.5321 30.3129 29.9294ZM27.9511 25.5959C28.01 25.3699 28.0415 25.2963 28.0472 25.221C28.1303 24.0882 28.0335 22.9371 28.4685 21.8402C28.5428 21.6528 28.4241 21.3475 28.3176 21.1357C27.784 20.076 26.8719 19.371 25.9292 18.7194C25.4949 18.4198 24.9815 18.2364 24.5037 18.0003C24.4181 18.0559 24.3317 18.1113 24.2454 18.1669C24.2454 18.9751 24.205 19.7865 24.2664 20.5901C24.2898 20.8923 24.4956 21.2247 24.7103 21.4599C25.4335 22.2544 26.2431 22.9737 26.9301 23.797C27.3369 24.285 27.5742 24.9149 27.9511 25.5962V25.5959ZM30.1055 25.047C30.1854 25.0111 30.2387 25.0051 30.2548 24.9773C31.0507 23.6081 32.0637 22.4311 33.3011 21.44C33.4722 21.3025 33.6167 21.0119 33.6135 20.7946C33.6014 20.0432 33.5247 19.2922 33.4625 18.5421C33.4254 18.0929 33.1744 17.9977 32.8232 18.2316C32.1299 18.6922 31.4002 19.1172 30.7827 19.6664C29.8456 20.4999 29.0206 21.4354 29.7576 22.8426C29.7939 22.9123 29.7818 23.0071 29.7947 23.0898C29.8972 23.7381 30.0005 24.3864 30.1055 25.0467V25.047ZM32.686 26.4433C33.3172 26.2407 33.7749 25.9982 34.2487 25.9601C35.4877 25.8605 36.2061 25.2566 36.5928 24.0687C36.9915 22.8469 37.2086 21.6289 37.1424 20.1999C36.3869 20.5293 35.7404 20.8259 35.0825 21.0939C34.394 21.3738 34.2358 21.9002 34.1042 22.5983C33.9186 23.584 33.4948 24.5262 33.155 25.4804C33.0541 25.762 32.8935 26.0223 32.686 26.4431V26.4433ZM24.9815 26.3206C24.9129 26.0789 24.9032 25.9929 24.8661 25.9211C24.1969 24.6346 23.732 23.2857 23.5891 21.8336C23.5778 21.7198 23.5133 21.5615 23.4253 21.5124C22.6052 21.0584 21.7754 20.6239 20.8835 20.1498C20.8084 20.4564 20.7584 20.5731 20.7543 20.6911C20.6995 22.3459 21.1692 23.8675 21.9756 25.2894C22.0813 25.4755 22.338 25.6164 22.5551 25.6884C22.9248 25.8114 23.322 25.8516 23.7013 25.9481C24.0928 26.0474 24.477 26.1725 24.9815 26.3206ZM28.3248 28.7222C28.3951 26.5792 25.6595 22.5182 24.3915 22.2602C24.3358 23.8876 25.8573 27.3801 28.3248 28.7222ZM29.6615 28.5791C31.5471 27.9318 33.7305 23.5015 33.3802 22.0816C31.6424 24.0092 30.0199 25.8626 29.6615 28.5791ZM34.3827 20.7175C34.9074 20.4665 35.3279 20.2699 35.7452 20.0646C36.1666 19.8565 36.8147 19.7306 36.9439 19.4028C37.0948 19.0203 36.805 18.4542 36.6783 17.9751C36.621 17.7569 36.5241 17.5365 36.3926 17.3548C36.3127 17.2447 36.1133 17.1239 36.0019 17.1507C35.3085 17.3166 34.624 17.5229 34.0106 17.6953C34.1397 18.7447 34.2503 19.645 34.3827 20.7172V20.7175ZM21.8876 17.0595C21.7714 17.1717 21.5397 17.2984 21.4614 17.4881C21.258 17.985 21.1595 18.5263 20.9456 19.0176C20.7729 19.4127 20.894 19.5821 21.2435 19.7267C21.8545 19.9791 22.4551 20.2583 23.0637 20.5158C23.3987 20.6575 23.5593 20.5613 23.5778 20.1668C23.6085 19.5005 23.623 18.821 23.7732 18.177C23.8644 17.7811 23.749 17.6035 23.4527 17.5006C22.9813 17.3367 22.4922 17.2263 21.8876 17.0595ZM34.8912 26.5352C33.3705 26.5381 30.9474 27.998 30.4663 29.2C31.8377 29.2786 34.6281 27.5981 34.8912 26.5352ZM27.5919 29.0725C26.8275 28.4306 26.2197 27.7789 25.4844 27.3436C24.7499 26.9088 23.8886 26.6903 22.9345 26.3197C23.4221 27.6124 26.2294 29.3576 27.5919 29.0725ZM28.9044 27.8113C29.6478 26.3507 29.5937 23.1509 28.8527 22.6443C28.2474 24.3437 28.4605 26.0111 28.9044 27.8113Z"/>
            <path d="M55.4824 37.937C56.0272 39.2799 55.8787 44.0348 55.2233 44.6582C55.036 44.2752 54.8181 43.947 54.7083 43.5857C54.1078 41.6158 53.0818 39.952 51.3529 38.7832C49.8959 37.7982 48.3122 37.5313 46.5558 37.7015C44.7526 37.8763 43.3755 38.7372 42.2035 39.9797C40.5916 41.688 40.8265 44.8087 42.9566 46.2252C44.4055 47.1889 46.0909 47.4834 47.6834 48.0532C49.4923 48.7005 51.2584 49.4735 53.0277 50.2283C54.5549 50.8797 55.8706 51.8044 56.8191 53.2257C57.4317 54.1428 57.8377 55.1109 57.9443 56.2028C58.2203 59.0456 57.3558 61.5078 55.2588 63.42C53.7276 64.8171 51.8582 65.6305 49.7869 65.9651C47.5591 66.3248 45.5024 65.769 43.4522 64.9816C41.611 64.2743 40.0467 63.2539 38.9813 61.5537C38.099 60.1462 37.6058 58.6532 38.024 56.9754C38.2419 56.0969 39.1968 55.1949 39.9733 55.0977C41.021 54.9665 41.9993 55.4797 42.5151 56.4367C42.7306 56.8379 42.771 57.2128 42.3601 57.5337C41.3697 58.3077 41.0517 59.6932 41.477 60.8773C42.5175 63.7732 45.1771 64.9621 47.7262 65.0391C49.9911 65.1071 51.9929 64.5773 53.8099 63.2135C55.6607 61.8244 56.4784 59.2564 55.421 56.8626C54.7599 55.3651 53.4999 54.6121 52.1907 53.8473C49.9217 52.5214 47.3759 51.9512 44.9285 51.1152C43.4078 50.5959 41.9282 49.9797 40.6682 48.9825C39.3986 47.9785 38.8117 46.5467 38.7827 44.9521C38.7552 43.3941 38.9352 41.8697 39.7658 40.4586C40.5778 39.0786 41.7216 38.1218 43.1075 37.429C46.0166 35.975 48.9071 35.9403 51.7258 37.6798C52.4135 38.1041 53.0463 38.6175 53.7259 39.0562C54.6001 39.6201 54.8794 39.4971 55.1821 38.4961C55.2305 38.3361 55.3419 38.195 55.4824 37.9372V37.937Z"/>
            <path d="M11.9157 65.1676C9.16243 65.1676 6.40915 65.1717 3.65587 65.1619C3.38223 65.1611 3.07551 65.1384 2.84466 65.0129C2.41605 64.7796 2.39586 64.4847 2.86806 64.2291C4.18779 63.5142 4.31533 63.1184 4.27255 61.6037C4.21524 59.5486 4.30645 57.4896 4.31048 55.4322C4.31452 53.4554 4.27982 51.4784 4.27659 49.5015C4.27336 47.7222 4.3 45.9427 4.29434 44.1634C4.29031 42.5403 4.30484 40.9148 4.22331 39.2948C4.18538 38.5377 3.73094 37.9758 2.95686 37.724C2.79784 37.6722 2.68806 37.4698 2.55568 37.3369C2.68967 37.2082 2.80349 37.0289 2.96412 36.9631C3.19336 36.8691 3.45568 36.8209 3.70429 36.8186C5.13703 36.8058 6.57059 36.7903 8.00171 36.8306C8.29875 36.8391 8.58933 37.0786 8.88234 37.2116C8.67328 37.43 8.50377 37.7426 8.2479 37.8513C7.04843 38.3603 7.25427 39.4747 7.23489 40.3777C7.16548 43.6551 7.20744 46.935 7.20825 50.214C7.20825 53.4159 7.20018 56.6179 7.21713 59.8196C7.22197 60.8326 7.29704 61.8451 7.33821 62.8578C7.36807 63.6201 7.85561 64.1832 8.50135 64.1771C11.1295 64.1519 13.8013 64.6362 16.3746 63.7576C17.9042 63.2353 19.098 62.2174 19.7873 60.7479C20.3103 59.6336 20.6381 58.4284 21.0844 57.2758C21.1684 57.0591 21.4008 56.9007 21.5647 56.7155C21.6608 56.9231 21.8545 57.1393 21.8375 57.3376C21.693 59.0712 21.5114 60.8017 21.3411 62.5333C21.2757 63.1955 21.199 63.8569 21.1514 64.5203C21.1127 65.0566 20.8278 65.1814 20.3305 65.1773C17.5256 65.1587 14.7207 65.1684 11.9157 65.1684V65.1676Z"/>
            <path fill-rule="evenodd" clip-rule="evenodd" d="M54.9851 33.0535V26.5319C54.9851 12.3709 43.5474 0.891148 29.438 0.891148C15.3285 0.891148 3.89082 12.3709 3.89082 26.5319V33.0535H3.00293V26.5319C3.00293 11.8788 14.8386 0 29.438 0C44.0374 0 55.873 11.8788 55.873 26.5319V33.0535H54.9851Z"/>
    </symbol>
    <symbol id="circle-arrow" viewBox="0 0 32 32">
        <circle cx="16" cy="16" r="15.5"/>
        <path d="M10 13L16 19L22 13" stroke-linecap="round" stroke-linejoin="round"/>
    </symbol>

    <symbol id="minus" viewBox="0 0 44 44">
        <path d="M9.16675 22H34.8334" stroke-linecap="round" stroke-linejoin="round"/>
    </symbol>
    <symbol id="plus" viewBox="0 0 44 44">
        <path d="M21.9998 9.16602V34.8327M9.1665 21.9993H34.8332" stroke-linecap="round" stroke-linejoin="round"/>
    </symbol>
    <symbol id="close" viewBox="0 0 34 34" >
        <path d="M33 1L1 33M1 1L33 33" stroke-linecap="round" stroke-linejoin="round"/>
    </symbol>
    <symbol id="alert-success" viewBox="0 0 24 25">
        <path d="M9 12.5L11 14.5L15.5 10M7.33377 4.3187C8.1376 4.25455 8.90071 3.93846 9.51447 3.41542C10.9467 2.19486 13.0533 2.19486 14.4855 3.41542C15.0993 3.93846 15.8624 4.25455 16.6662 4.3187C18.5421 4.46839 20.0316 5.95794 20.1813 7.83377C20.2455 8.6376 20.5615 9.40071 21.0846 10.0145C22.3051 11.4467 22.3051 13.5533 21.0846 14.9855C20.5615 15.5993 20.2455 16.3624 20.1813 17.1662C20.0316 19.0421 18.5421 20.5316 16.6662 20.6813C15.8624 20.7455 15.0993 21.0615 14.4855 21.5846C13.0533 22.8051 10.9467 22.8051 9.51447 21.5846C8.90071 21.0615 8.1376 20.7455 7.33377 20.6813C5.45794 20.5316 3.96839 19.0421 3.8187 17.1662C3.75455 16.3624 3.43846 15.5993 2.91542 14.9855C1.69486 13.5533 1.69486 11.4467 2.91542 10.0145C3.43846 9.40071 3.75455 8.6376 3.8187 7.83377C3.96839 5.95794 5.45794 4.46839 7.33377 4.3187Z"/>
    </symbol>
    <symbol id="arrow-back" viewBox="0 0 24 24">
        <path d="M15 18L9 12L15 6"/>
    </symbol>

    <symbol id="bin" viewBox="0 0 44 44">
        <path d="M14.3001 36.1169C13.5362 36.1169 12.8869 35.8496 12.3522 35.3148C11.8175 34.7801 11.5501 34.1308 11.5501 33.3669V11.0003H9.7168V9.71693H16.5001V8.43359H27.5001V9.71693H34.2835V11.0003H32.4501V33.3669C32.4501 34.1614 32.1904 34.8183 31.671 35.3378C31.1515 35.8572 30.4946 36.1169 29.7001 36.1169H14.3001ZM31.1668 11.0003H12.8335V33.3669C12.8335 33.7947 12.971 34.1461 13.246 34.4211C13.521 34.6961 13.8724 34.8336 14.3001 34.8336H29.7001C30.0668 34.8336 30.4029 34.6808 30.7085 34.3753C31.014 34.0697 31.1668 33.7336 31.1668 33.3669V11.0003ZM18.4251 31.1669H19.7085V14.6669H18.4251V31.1669ZM24.2918 31.1669H25.5751V14.6669H24.2918V31.1669Z"/>
    </symbol>

    <symbol id="carousel-next" viewBox="0 0 32 32">
        <path d="M13 22L19 16L13 10"/>
    </symbol>
    <symbol id="carousel-prev" viewBox="0 0 32 32">
        <path d="M19 10L13 16L19 22"/>
    </symbol>
    <symbol id="logout" viewBox="0 0 22 20">
        <path d="M17 6L21 10M21 10L17 14M21 10H8M14 2.20404C12.7252 1.43827 11.2452 1 9.66667 1C4.8802 1 1 5.02944 1 10C1 14.9706 4.8802 19 9.66667 19C11.2452 19 12.7252 18.5617 14 17.796" stroke-linecap="round" stroke-linejoin="round"/>
    </symbol>



</svg>
