<svg width="109" height="119" viewBox="0 0 109 119" fill="none" xmlns="http://www.w3.org/2000/svg">
<path d="M69.5324 36.4584L66.9332 34.9603C66.9333 34.9601 66.9334 34.9599 66.9336 34.9597C73.6503 23.313 73.4314 14.9885 70.3699 9.67625C67.2772 4.31005 60.997 1.5 54.515 1.5C48.0331 1.5 41.7505 4.31007 38.6542 9.67687C35.5892 14.9892 35.3651 23.3129 42.0729 34.9579L69.5324 36.4584ZM69.5324 36.4584C69.5325 36.4582 69.5326 36.458 69.5327 36.4578C76.2423 24.8108 83.5465 20.8413 89.6659 20.84C95.8485 20.8388 101.418 24.8781 104.659 30.4992C107.9 36.1202 108.61 42.9725 105.517 48.3381C102.456 53.6482 95.3716 58 81.9471 58V59.5V61C95.3716 61 102.456 65.3518 105.517 70.6619C108.61 76.0275 107.9 82.8798 104.659 88.5008C101.418 94.1219 95.8485 98.1612 89.6659 98.16C83.5465 98.1587 76.2423 94.1892 69.5327 82.5422L68.233 83.291L66.9332 84.0397C73.6424 95.686 73.4185 104.01 70.3533 109.323C67.2569 114.69 60.9744 117.5 54.4925 117.5C48.0105 117.5 41.7302 114.69 38.6376 109.324C35.5783 104.015 35.3575 95.6992 42.0591 84.066C42.0641 84.0574 42.069 84.0489 42.0739 84.0403C42.074 84.0401 42.0742 84.0399 42.0743 84.0397L39.4751 82.5416M69.5324 36.4584L39.4751 82.5416M42.0743 34.9603L39.4751 36.4584C39.475 36.4582 39.4749 36.458 39.4748 36.4578L42.0743 34.9603ZM42.0743 34.9603C42.0742 34.9601 42.074 34.9599 42.0739 34.9597L42.0743 34.9603ZM39.4751 82.5416C39.4696 82.5511 39.4642 82.5606 39.4587 82.5701C32.7535 94.1955 25.4561 98.1587 19.3416 98.16C13.159 98.1612 7.58973 94.1219 4.34872 88.5008C1.10782 82.8798 0.397213 76.0275 3.49024 70.6619C6.55128 65.3518 13.6359 61 27.0603 61V59.5V58C13.6359 58 6.54915 53.6482 3.48579 48.3377C0.3905 42.9718 1.09867 36.1196 4.33762 30.4989C7.57668 24.8781 13.1449 20.8388 19.3289 20.84C25.4498 20.8413 32.7575 24.8109 39.4743 36.457L39.4751 82.5416Z" stroke="#648371" stroke-width="3"/>
</svg>
