<svg width="20" height="20" viewBox="0 0 20 20" fill="none" xmlns="http://www.w3.org/2000/svg">
<path d="M13.9996 6C13.9996 7.06087 13.5782 8.07828 12.828 8.82843C12.0779 9.57857 11.0605 10 9.99959 10C8.93872 10 7.92131 9.57857 7.17116 8.82843C6.42102 8.07828 5.99959 7.06087 5.99959 6M1.63281 5.40138L0.932807 13.8014C0.78243 15.6059 0.707241 16.5082 1.01227 17.2042C1.28027 17.8157 1.74462 18.3204 2.33177 18.6382C3.00006 19 3.90545 19 5.71623 19H14.283C16.0937 19 16.9991 19 17.6674 18.6382C18.2546 18.3204 18.7189 17.8157 18.9869 17.2042C19.2919 16.5082 19.2167 15.6059 19.0664 13.8014L18.3664 5.40138C18.237 3.84875 18.1723 3.07243 17.8285 2.48486C17.5257 1.96744 17.0748 1.5526 16.5341 1.29385C15.92 1 15.141 1 13.583 1L6.41623 1C4.85821 1 4.07921 1 3.4651 1.29384C2.92433 1.5526 2.47349 1.96744 2.17071 2.48486C1.82689 3.07243 1.76219 3.84875 1.63281 5.40138Z" stroke="#FAFAFA" stroke-linecap="round" stroke-linejoin="round"/>
</svg>
